<mxfile host="Electron" agent="Mozilla/5.0 (Macintosh; Intel Mac OS X 10_15_7) AppleWebKit/537.36 (KHTML, like Gecko) draw.io/25.0.2 Chrome/128.0.6613.186 Electron/32.2.5 Safari/537.36" version="25.0.2">
  <diagram name="Page-1" id="gXHDYxAFzSBr6VGLytEn">
    <mxGraphModel dx="1553" dy="970" grid="1" gridSize="10" guides="1" tooltips="1" connect="1" arrows="1" fold="1" page="1" pageScale="1" pageWidth="827" pageHeight="1169" background="none" math="0" shadow="0">
      <root>
        <mxCell id="0" />
        <mxCell id="1" parent="0" />
        <mxCell id="MP2px9YScLDvGAfy4hZi-11" value="" style="rounded=0;whiteSpace=wrap;html=1;fontFamily=IBM Plex Sans;fontSource=fonts%2FIBMPlexSans-Regular.woff;fontSize=14;spacingBottom=-28;spacingTop=0;labelPosition=-100;verticalLabelPosition=top;align=center;verticalAlign=bottom;spacingLeft=9;spacing=0;expand=0;recursiveResize=0;spacingRight=0;container=1;collapsible=0;strokeColor=#1192E8;fillColor=#FFFFFF;" parent="1" vertex="1">
          <mxGeometry x="130" y="130" width="1370" height="570" as="geometry">
            <mxRectangle width="670" as="alternateBounds" />
          </mxGeometry>
        </mxCell>
        <mxCell id="MP2px9YScLDvGAfy4hZi-12" value="" style="rounded=0;whiteSpace=wrap;html=1;strokeColor=none;fillColor=#1192E8;" parent="MP2px9YScLDvGAfy4hZi-11" vertex="1">
          <mxGeometry width="7" height="37" as="geometry" />
        </mxCell>
        <mxCell id="MP2px9YScLDvGAfy4hZi-13" value="&lt;b&gt;IBM Cloud&lt;/b&gt;" style="text;html=1;strokeColor=none;fillColor=none;align=left;verticalAlign=middle;whiteSpace=wrap;rounded=0;fontFamily=IBM Plex Sans;fontSource=fonts%2FIBMPlexSans-Regular.woff;fontSize=14;" parent="MP2px9YScLDvGAfy4hZi-11" vertex="1">
          <mxGeometry x="51" y="8" width="163" height="20" as="geometry" />
        </mxCell>
        <mxCell id="MP2px9YScLDvGAfy4hZi-14" value="" style="shape=image;aspect=fixed;image=data:image/svg+xml,PD94bWwgdmVyc2lvbj0iMS4wIiBlbmNvZGluZz0iVVRGLTgiPz4KPHN2ZyB3aWR0aD0iMzNweCIgaGVpZ2h0PSIyNHB4IiB2aWV3Qm94PSIwIDAgMzMgMjQiIHZlcnNpb249IjEuMSIgeG1sbnM9Imh0dHA6Ly93d3cudzMub3JnLzIwMDAvc3ZnIiB4bWxuczp4bGluaz0iaHR0cDovL3d3dy53My5vcmcvMTk5OS94bGluayI+CiAgICA8IS0tIEdlbmVyYXRvcjogU2tldGNoIDUzICg3MjUyMCkgLSBodHRwczovL3NrZXRjaGFwcC5jb20gLS0+CiAgICA8dGl0bGU+Q2xvdWQtIEJsYWNrPC90aXRsZT4KICAgIDxkZXNjPkNyZWF0ZWQgd2l0aCBTa2V0Y2guPC9kZXNjPgogICAgPGRlZnM+CiAgICAgICAgPHBvbHlnb24gaWQ9InBhdGgtMSIgcG9pbnRzPSIwIDkuNjQ4MjU3NzNlLTA1IDMxLjk2ODkxODEgOS42NDgyNTc3M2UtMDUgMzEuOTY4OTE4MSAyMyAwIDIzIj48L3BvbHlnb24+CiAgICA8L2RlZnM+CiAgICA8ZyBpZD0iUGFnZS0xIiBzdHJva2U9Im5vbmUiIHN0cm9rZS13aWR0aD0iMSIgZmlsbD0ibm9uZSIgZmlsbC1ydWxlPSJldmVub2RkIj4KICAgICAgICA8ZyBpZD0iQ2xvdWQtLUJsYWNrIiB0cmFuc2Zvcm09InRyYW5zbGF0ZSgwLjY4NzUwMCwgMC41MDAwMDApIj4KICAgICAgICAgICAgPG1hc2sgaWQ9Im1hc2stMiIgZmlsbD0id2hpdGUiPgogICAgICAgICAgICAgICAgPHVzZSB4bGluazpocmVmPSIjcGF0aC0xIj48L3VzZT4KICAgICAgICAgICAgPC9tYXNrPgogICAgICAgICAgICA8ZyBpZD0iQ2xpcC0yIj48L2c+CiAgICAgICAgICAgIDxwYXRoIGQ9Ik0xNS45OTQ5LDAuMDAwMSBDMTEuMTkzOSwtMC4wMDM5IDcuMDY3OSwzLjQwNDEgNi4xNjQ5LDguMTIwMSBDMi4wODk5LDguODU4MSAtMC42MTYxLDEyLjc2MDEgMC4xMjA5LDE2LjgzNjEgQzAuNzY1OSwyMC4zOTkxIDMuODYzOSwyMi45OTIxIDcuNDg0OSwyMy4wMDAxIEwyNC40ODQ5LDIzLjAwMDEgQzI4LjYyNzksMjIuOTkxMSAzMS45Nzc5LDE5LjYyNjEgMzEuOTY4OSwxNS40ODQxIEMzMS45NjA5LDExLjg2MzEgMjkuMzY3OSw4Ljc2NTEgMjUuODA1OSw4LjEyMDEgQzI1LjAzNDksNC4wOTcxIDIxLjg4ODksMC45NTExIDE3Ljg2NDksMC4xODAxIEMxNy4yNDg5LDAuMDYzMSAxNi42MjI5LDAuMDAyMSAxNS45OTQ5LDAuMDAwMSBNMTUuOTk0OSwyLjAwMDEgTDE1Ljk5NDksMi4wMDAxIEMxNi41MDE5LDIuMDAwMSAxNy4wMDc5LDIuMDUwMSAxNy41MDQ5LDIuMTUwMSBDMjAuNzE5OSwyLjc2NjEgMjMuMjMzOSw1LjI3NzEgMjMuODU0OSw4LjQ5MDEgTDI0LjExNDksOS44NDAxIEwyNS40NjU5LDEwLjA4MDEgQzI4LjQ1ODksMTAuNTk1MSAzMC40Njg5LDEzLjQzOTEgMjkuOTUyOSwxNi40MzMxIEMyOS40OTQ5LDE5LjA5NzEgMjcuMTY4OSwyMS4wMzMxIDI0LjQ2NTksMjEuMDAwMSBMNy40OTQ5LDIxLjAwMDEgQzQuNDU3OSwyMS4wMzcxIDEuOTY1OSwxOC42MDUxIDEuOTI3OSwxNS41NjgxIEMxLjg5MzksMTIuODY1MSAzLjgzMDksMTAuNTM4MSA2LjQ5NDksMTAuMDgwMSBMNy44MzQ5LDkuODQwMSBMOC4wOTU5LDguNDkwMSBDOC44MjE5LDQuNzA3MSAxMi4xNDE5LDEuOTc5MSAxNS45OTQ5LDIuMDAwMSIgaWQ9IkZpbGwtMSIgZmlsbD0iIzAwMDAwMCIgbWFzaz0idXJsKCNtYXNrLTIpIj48L3BhdGg+CiAgICAgICAgPC9nPgogICAgPC9nPgo8L3N2Zz4=;" parent="MP2px9YScLDvGAfy4hZi-11" vertex="1">
          <mxGeometry x="18" y="6.8400000000001455" width="27" height="19.62" as="geometry" />
        </mxCell>
        <mxCell id="MP2px9YScLDvGAfy4hZi-16" value="" style="rounded=0;whiteSpace=wrap;html=1;fontFamily=IBM Plex Sans;fontSource=fonts%2FIBMPlexSans-Regular.woff;fontSize=14;spacingBottom=-28;spacingTop=0;labelPosition=-100;verticalLabelPosition=top;align=center;verticalAlign=bottom;spacingLeft=9;spacing=0;expand=0;recursiveResize=0;spacingRight=0;container=1;collapsible=0;strokeColor=#666666;fillColor=#f5f5f5;fontColor=#333333;" parent="MP2px9YScLDvGAfy4hZi-11" vertex="1">
          <mxGeometry x="730" y="80" width="590" height="460" as="geometry">
            <mxRectangle width="670" as="alternateBounds" />
          </mxGeometry>
        </mxCell>
        <mxCell id="MP2px9YScLDvGAfy4hZi-17" value="" style="rounded=0;whiteSpace=wrap;html=1;strokeColor=none;fillColor=#1192E8;" parent="MP2px9YScLDvGAfy4hZi-16" vertex="1">
          <mxGeometry width="7" height="37" as="geometry" />
        </mxCell>
        <mxCell id="MP2px9YScLDvGAfy4hZi-18" value="IBM VPC (customer managed)" style="text;html=1;strokeColor=none;fillColor=none;align=left;verticalAlign=middle;whiteSpace=wrap;rounded=0;fontFamily=IBM Plex Sans;fontSource=fonts%2FIBMPlexSans-Regular.woff;fontSize=14;" parent="MP2px9YScLDvGAfy4hZi-16" vertex="1">
          <mxGeometry x="51" y="8" width="209" height="20" as="geometry" />
        </mxCell>
        <mxCell id="MP2px9YScLDvGAfy4hZi-19" value="" style="shape=image;aspect=fixed;image=data:image/svg+xml,PD94bWwgdmVyc2lvbj0iMS4wIiBlbmNvZGluZz0iVVRGLTgiPz4KPHN2ZyB3aWR0aD0iMjlweCIgaGVpZ2h0PSIyOHB4IiB2aWV3Qm94PSIwIDAgMjkgMjgiIHZlcnNpb249IjEuMSIgeG1sbnM9Imh0dHA6Ly93d3cudzMub3JnLzIwMDAvc3ZnIiB4bWxuczp4bGluaz0iaHR0cDovL3d3dy53My5vcmcvMTk5OS94bGluayI+CiAgICA8IS0tIEdlbmVyYXRvcjogU2tldGNoIDUzICg3MjUyMCkgLSBodHRwczovL3NrZXRjaGFwcC5jb20gLS0+CiAgICA8dGl0bGU+SUJNIFZQQyBCbGFjazwvdGl0bGU+CiAgICA8ZGVzYz5DcmVhdGVkIHdpdGggU2tldGNoLjwvZGVzYz4KICAgIDxnIGlkPSJQYWdlLTEiIHN0cm9rZT0ibm9uZSIgc3Ryb2tlLXdpZHRoPSIxIiBmaWxsPSJub25lIiBmaWxsLXJ1bGU9ImV2ZW5vZGQiPgogICAgICAgIDxnIGlkPSJJQk0tVlBDLUJsYWNrIiB0cmFuc2Zvcm09InRyYW5zbGF0ZSgwLjc1MDAwMCwgLTEuMDAwMDAwKSIgZmlsbD0iIzAwMDAwMCI+CiAgICAgICAgICAgIDxwYXRoIGQ9Ik0wLjAwMDksMS4wMDAyIEwwLjAwMDksOS4wMDAyIEw2LjU4NjksOS4wMDAyIEwyMC4wMDA5LDIyLjQxNDIgTDIwLjAwMDksMjkuMDAwMiBMMjguMDAwOSwyOS4wMDAyIEwyOC4wMDA5LDIxLjAwMDIgTDIxLjQxNTksMjEuMDAwMiBMOC4wMDA5LDcuNTg1MiBMOC4wMDA5LDEuMDAwMiBMMC4wMDA5LDEuMDAwMiBaIE0yLjAwMDksNy4wMDAyIEw2LjAwMDksNy4wMDAyIEw2LjAwMDksMy4wMDAyIEwyLjAwMDksMy4wMDAyIEwyLjAwMDksNy4wMDAyIFogTTIyLjAwMDksMjcuMDAxMiBMMjYuMDAxOSwyNy4wMDEyIEwyNi4wMDE5LDIzLjAwMDIgTDIyLjAwMDksMjMuMDAwMiBMMjIuMDAwOSwyNy4wMDEyIFoiIGlkPSJGaWxsLTEiPjwvcGF0aD4KICAgICAgICAgICAgPGcgaWQ9Ikdyb3VwLTgiIHRyYW5zZm9ybT0idHJhbnNsYXRlKDAuMDAwMDAwLCAwLjAwMTkwMCkiPgogICAgICAgICAgICAgICAgPGcgaWQ9Ikdyb3VwLTQiIHRyYW5zZm9ybT0idHJhbnNsYXRlKDExLjAwMDAwMCwgMC4wMDAwMDApIj4KICAgICAgICAgICAgICAgICAgICA8cGF0aCBkPSJNMTIuNjQ2Nyw2LjgxNzkgQzExLjU0MjcsNi44MTc5IDEwLjY0NjcsNS45MjI5IDEwLjY0NjcsNC44MTc5IEMxMC42NDY3LDMuNzEzOSAxMS41NDI3LDIuODE3OSAxMi42NDY3LDIuODE3OSBDMTMuNzUwNywyLjgxNzkgMTQuNjQ2NywzLjcxMzkgMTQuNjQ2Nyw0LjgxNzkgQzE0LjY0NTcsNS45MjE5IDEzLjc1MDcsNi44MTY5IDEyLjY0NjcsNi44MTc5IE0xNi43MzM3LDMuNTE4OSBDMTYuMzU2NywyLjQ5ODkgMTUuNTMxNywxLjY2NzkgMTQuNTE1NywxLjI4MDkgQzEyLjEyNzcsMC4zNzA5IDkuNzE3NywxLjc1NTkgOS4xNDI3LDMuOTk3OSBMMC4wMDA3LDMuOTk3OSBMMC4wMDA3LDUuOTk3OSBMOS4xNDI3LDUuOTk3OSBDOS41MDc3LDcuMzk3OSAxMC42MDE3LDguNDkwOSAxMi4wMDA3LDguODU1OSBMMTIuMDAwNywxNy45OTc5IEwxNC4wMDA3LDE3Ljk5NzkgTDE0LjAwMDcsOC44NTU5IEMxNi4yMjk3LDguMjgxOSAxNy42MTE3LDUuODk2OSAxNi43MzM3LDMuNTE4OSIgaWQ9IkZpbGwtMiI+PC9wYXRoPgogICAgICAgICAgICAgICAgPC9nPgogICAgICAgICAgICAgICAgPGcgaWQ9Ikdyb3VwLTciIHRyYW5zZm9ybT0idHJhbnNsYXRlKDAuMDAwMDAwLCAxMS4wMDAwMDApIj4KICAgICAgICAgICAgICAgICAgICA8cGF0aCBkPSJNMy42NDY3LDE1LjgxNzkgQzIuNTQyNywxNS44MTc5IDEuNjQ2NywxNC45MjI5IDEuNjQ2NywxMy44MTc5IEMxLjY0NjcsMTIuNzEzOSAyLjU0MjcsMTEuODE3OSAzLjY0NjcsMTEuODE3OSBDNC43NTA3LDExLjgxNzkgNS42NDY3LDEyLjcxMzkgNS42NDY3LDEzLjgxNzkgQzUuNjQ1NywxNC45MjE5IDQuNzUwNywxNS44MTY5IDMuNjQ2NywxNS44MTc5IEwzLjY0NjcsMTUuODE3OSBaIE0xNy4wMDA3LDEyLjk5NzkgTDcuODU4NywxMi45OTc5IEM3LjQ5MzcsMTEuNTk3OSA2LjQwMDcsMTAuNTA0OSA1LjAwMDcsMTAuMTM5OSBMNS4wMDA3LDAuOTk3OSBMMy4wMDA3LDAuOTk3OSBMMy4wMDA3LDEwLjEzOTkgQzAuNDg3NywxMC43ODQ5IC0wLjg1MTMsMTMuNjgzOSAwLjU5NDcsMTYuMTE5OSBDMS4xNTA3LDE3LjA1NTkgMi4xMTE3LDE3LjcyODkgMy4xODI3LDE3LjkyNjkgQzUuNDAyNywxOC4zMzc5IDcuMzUzNywxNi45Njk5IDcuODU4NywxNC45OTc5IEwxNy4wMDA3LDE0Ljk5NzkgTDE3LjAwMDcsMTIuOTk3OSBaIiBpZD0iRmlsbC01Ij48L3BhdGg+CiAgICAgICAgICAgICAgICA8L2c+CiAgICAgICAgICAgIDwvZz4KICAgICAgICA8L2c+CiAgICA8L2c+Cjwvc3ZnPg==;" parent="MP2px9YScLDvGAfy4hZi-16" vertex="1">
          <mxGeometry x="20" y="6.849999999999909" width="20" height="19.31" as="geometry" />
        </mxCell>
        <mxCell id="MP2px9YScLDvGAfy4hZi-47" value="" style="rounded=0;whiteSpace=wrap;html=1;fontFamily=IBM Plex Sans;fontSource=fonts%2FIBMPlexSans-Regular.woff;fontSize=14;spacingBottom=-28;spacingTop=0;labelPosition=-100;verticalLabelPosition=top;align=center;verticalAlign=bottom;spacingLeft=9;spacing=0;expand=0;recursiveResize=0;spacingRight=0;container=1;collapsible=0;fillColor=default;strokeColor=#198038;" parent="MP2px9YScLDvGAfy4hZi-16" vertex="1">
          <mxGeometry x="381" y="140" width="170" height="160" as="geometry">
            <mxRectangle width="670" as="alternateBounds" />
          </mxGeometry>
        </mxCell>
        <mxCell id="MP2px9YScLDvGAfy4hZi-48" value="" style="rounded=0;whiteSpace=wrap;html=1;strokeColor=none;fillColor=#198038;" parent="MP2px9YScLDvGAfy4hZi-47" vertex="1">
          <mxGeometry width="7" height="37" as="geometry" />
        </mxCell>
        <mxCell id="MP2px9YScLDvGAfy4hZi-49" value="Virtual Server" style="text;html=1;strokeColor=none;fillColor=none;align=left;verticalAlign=middle;whiteSpace=wrap;rounded=0;fontFamily=IBM Plex Sans;fontSource=fonts%2FIBMPlexSans-Regular.woff;fontSize=14;" parent="MP2px9YScLDvGAfy4hZi-47" vertex="1">
          <mxGeometry x="51" y="8" width="163" height="20" as="geometry" />
        </mxCell>
        <mxCell id="MP2px9YScLDvGAfy4hZi-50" value="" style="shape=image;aspect=fixed;image=data:image/svg+xml,PHN2ZyBpZD0iaWNvbiIgeG1sbnM9Imh0dHA6Ly93d3cudzMub3JnLzIwMDAvc3ZnIiB3aWR0aD0iMzIiIGhlaWdodD0iMzIiIHZpZXdCb3g9IjAgMCAzMiAzMiI+PGRlZnM+PHN0eWxlPi5jbHMtMXtmaWxsOm5vbmU7fTwvc3R5bGU+PC9kZWZzPjx0aXRsZT52aXJ0dWFsLW1hY2hpbmU8L3RpdGxlPjxwYXRoIGQ9Ik0yMCwxM0gxMmEyLjAwMjUsMi4wMDI1LDAsMCwwLTIsMlYyOGEyLjAwMjUsMi4wMDI1LDAsMCwwLDIsMmg4YTIuMDAyNSwyLjAwMjUsMCwwLDAsMi0yVjE1QTIuMDAyNSwyLjAwMjUsMCwwLDAsMjAsMTNabTAsMiwwLDNIMTJWMTVabTAsNSwwLDNIMTJWMjBabS04LDhWMjVoOHYzWiIvPjxwYXRoIGQ9Ik0yNS45MSwxMC4xM2EuMTIxLjEyMSwwLDAsMS0uMDk2Ny0uMDk1MkExMC4wMDYxLDEwLjAwNjEsMCwwLDAsMTcuODksMi4xODE2LDEwLjAwMjUsMTAuMDAyNSwwLDAsMCw2LjE4NTgsMTAuMDM0N2EuMTIxMi4xMjEyLDAsMCwxLS4wOTY0LjA5NTdBNy41MDE5LDcuNTAxOSwwLDAsMCw3LjQ5MTIsMjVIOFYyM0g3LjQ5NTRhNS41MTA4LDUuNTEwOCwwLDAsMS01LjQzODctNi4zLDUuNjk5Miw1LjY5OTIsMCwwLDEsNC43MTM4LTQuNjYwNmwxLjAxNjYtLjE4MzZhLjEzMDYuMTMwNiwwLDAsMCwuMTA0NS0uMTAzNWwuMTgtLjkzNTFhOC4yOCw4LjI4LDAsMCwxLDYuODQ2OS02Ljc0MjcsNy45NTcsNy45NTcsMCwwLDEsMi44NDcxLjEyNDUsOC4yMiw4LjIyLDAsMCwxLDYuMTQ3NSw2LjU0NWwuMTk0MSwxLjAwODNhLjEzLjEzLDAsMCwwLC4xMDQ1LjEwMzVsMS4wNTc2LjE5MTRhNS43ODE5LDUuNzgxOSwwLDAsMSwzLjEwMTEsMS41MzlBNS41MDUyLDUuNTA1MiwwLDAsMSwyNC41MDc2LDIzSDI0djJoLjUwNzZBNy41MDE5LDcuNTAxOSwwLDAsMCwyNS45MSwxMC4xM1oiLz48cmVjdCBpZD0iX1RyYW5zcGFyZW50X1JlY3RhbmdsZV8iIGRhdGEtbmFtZT0iJmx0O1RyYW5zcGFyZW50IFJlY3RhbmdsZSZndDsiIGNsYXNzPSJjbHMtMSIgd2lkdGg9IjMyIiBoZWlnaHQ9IjMyIi8+PC9zdmc+;" parent="MP2px9YScLDvGAfy4hZi-47" vertex="1">
          <mxGeometry x="15" y="4.499999999999545" width="28" height="28" as="geometry" />
        </mxCell>
        <mxCell id="MP2px9YScLDvGAfy4hZi-62" value="PostgreSQL" style="shape=image;aspect=fixed;image=data:image/svg+xml,PHN2ZyBpZD0iTGF5ZXJfMSIgZGF0YS1uYW1lPSJMYXllciAxIiB4bWxucz0iaHR0cDovL3d3dy53My5vcmcvMjAwMC9zdmciIHZpZXdCb3g9IjAgMCA0OSA0OSI+PGRlZnM+PHN0eWxlPi5jbHMtMXtmaWxsOiMwZjYyZmU7fS5jbHMtMntmaWxsOm5vbmU7fS5jbHMtM3tmaWxsOiNmZmY7ZmlsbC1ydWxlOmV2ZW5vZGQ7fTwvc3R5bGU+PC9kZWZzPjxyZWN0IGNsYXNzPSJjbHMtMSIgeD0iMC41IiB5PSIwLjUiIHdpZHRoPSI0OCIgaGVpZ2h0PSI0OCIgcng9IjgiLz48cmVjdCBjbGFzcz0iY2xzLTIiIHg9IjE0LjUiIHk9IjE0LjUiIHdpZHRoPSIyMCIgaGVpZ2h0PSIyMCIvPjxwYXRoIGlkPSJGaWxsLTEiIGNsYXNzPSJjbHMtMyIgZD0iTTE4LjY1LDMyLjU5aDExLjdWMjguMjFIMTguNjVabTAtNS44NWgxMS43VjIyLjM2SDE4LjY1Wm0wLTUuODRoMTEuN1YxNi41MUgxOC42NVptMTEuNy01Ljg1SDE4LjY1YTEuNDYsMS40NiwwLDAsMC0xLjQ2LDEuNDZWMzIuNTlhMS40NiwxLjQ2LDAsMCwwLDEuNDYsMS40NmgxMS43YTEuNDYsMS40NiwwLDAsMCwxLjQ2LTEuNDZWMTYuNTFhMS40NiwxLjQ2LDAsMCwwLTEuNDYtMS40NloiLz48cGF0aCBpZD0iRmlsbC0zIiBjbGFzcz0iY2xzLTMiIGQ9Ik0yMC44NSwxOGEuNzQuNzQsMCwxLDEtLjc0LjczLjczLjczLDAsMCwxLC43NC0uNzMiLz48cGF0aCBpZD0iRmlsbC00IiBjbGFzcz0iY2xzLTMiIGQ9Ik0yMC44NSwyMy44MmEuNzMuNzMsMCwxLDEtLjc0LjczLjczLjczLDAsMCwxLC43NC0uNzMiLz48cGF0aCBpZD0iRmlsbC01IiBjbGFzcz0iY2xzLTMiIGQ9Ik0yMC44NSwyOS42N2EuNzMuNzMsMCwxLDEsMCwxLjQ2LjczLjczLDAsMSwxLDAtMS40NiIvPjwvc3ZnPg==;fontFamily=IBM Plex Sans;fontSource=fonts%2FIBMPlexSans-Regular.woff;fontSize=14;labelPosition=center;verticalLabelPosition=bottom;align=center;verticalAlign=top;spacingTop=-7;" parent="MP2px9YScLDvGAfy4hZi-47" vertex="1">
          <mxGeometry x="61" y="66" width="48" height="48" as="geometry" />
        </mxCell>
        <mxCell id="OowP8Bram1WtS_GlOOUc-24" value="Private Path &#xa;Network Load Balancer" style="shape=rect;fillColor=#1192E8;aspect=fixed;resizable=0;labelPosition=center;verticalLabelPosition=bottom;align=center;verticalAlign=top;strokeColor=none;fontSize=14;" vertex="1" parent="MP2px9YScLDvGAfy4hZi-16">
          <mxGeometry x="60" y="206" width="48" height="48" as="geometry" />
        </mxCell>
        <mxCell id="OowP8Bram1WtS_GlOOUc-25" value="" style="fillColor=#ffffff;strokeColor=none;dashed=0;outlineConnect=0;html=1;labelPosition=center;verticalLabelPosition=bottom;verticalAlign=top;part=1;movable=0;resizable=0;rotatable=0;shape=mxgraph.ibm_cloud.load-balancer--vpc" vertex="1" parent="OowP8Bram1WtS_GlOOUc-24">
          <mxGeometry width="24" height="24" relative="1" as="geometry">
            <mxPoint x="12" y="12" as="offset" />
          </mxGeometry>
        </mxCell>
        <mxCell id="OowP8Bram1WtS_GlOOUc-39" value="" style="html=1;labelBackgroundColor=#ffffff;jettySize=auto;orthogonalLoop=1;fontSize=14;rounded=0;jumpStyle=gap;edgeStyle=orthogonalEdgeStyle;startArrow=oval;endArrow=block;strokeWidth=2;startFill=1;endFill=1;strokeColor=#198038;entryX=0;entryY=0.5;entryDx=0;entryDy=0;exitX=1;exitY=0.5;exitDx=0;exitDy=0;" edge="1" parent="MP2px9YScLDvGAfy4hZi-16" source="OowP8Bram1WtS_GlOOUc-24" target="MP2px9YScLDvGAfy4hZi-62">
          <mxGeometry width="48" height="48" relative="1" as="geometry">
            <mxPoint x="10" y="268" as="sourcePoint" />
            <mxPoint x="58" y="220" as="targetPoint" />
          </mxGeometry>
        </mxCell>
        <object label="Private Path &#xa;service" release="v3.0.0" generation="2.0" id="OowP8Bram1WtS_GlOOUc-40">
          <mxCell style="shape=image;verticalLabelPosition=bottom;verticalAlign=top;imageAspect=0;aspect=fixed;image=data:image/svg+xml,PHN2ZyB4bWxuczp4bGluaz0iaHR0cDovL3d3dy53My5vcmcvMTk5OS94bGluayIgeG1sbnM9Imh0dHA6Ly93d3cudzMub3JnLzIwMDAvc3ZnIiB2ZXJzaW9uPSIxLjEiIHZpZXdCb3g9IjAgMCA0OCA0OCIgaGVpZ2h0PSI0OHB4IiB3aWR0aD0iNDhweCI+JiN4YTsgICAgPHRpdGxlPmdhdGV3YXktLWFwaTwvdGl0bGU+JiN4YTsgICAgPGcgZmlsbC1ydWxlPSJldmVub2RkIiBmaWxsPSJub25lIiBzdHJva2Utd2lkdGg9IjEiIHN0cm9rZT0ibm9uZSIgaWQ9IlYyLUljb25zIj4mI3hhOyAgICAgICAgPGcgdHJhbnNmb3JtPSJ0cmFuc2xhdGUoLTUyLCAtMjApIiBpZD0iSUJNL0Nsb3VkL05ldHdvcmsiPiYjeGE7ICAgICAgICAgICAgPGcgdHJhbnNmb3JtPSJ0cmFuc2xhdGUoNTIsIDIwKSIgaWQ9ImdhdGV3YXktLWFwaSI+JiN4YTsgICAgICAgICAgICAgICAgPHJlY3QgaGVpZ2h0PSI0OCIgd2lkdGg9IjQ4IiB5PSIwIiB4PSIwIiBmaWxsPSIjMTE5MkU4IiBpZD0iUmVjdGFuZ2xlIi8+JiN4YTsgICAgICAgICAgICAgICAgPGcgdHJhbnNmb3JtPSJ0cmFuc2xhdGUoMTIsIDEyKSI+JiN4YTsgICAgICAgICAgICAgICAgICAgIDxwYXRoIGZpbGwtcnVsZT0ibm9uemVybyIgZmlsbD0iI0ZGRkZGRiIgaWQ9IlNoYXBlIiBkPSJNMTIuNzUsMTMuNjM4MDc1IEwxMi43NSwxMC4zNjE5MjUgQzEzLjc4MzQ2NDMsOS45OTY2MzYwOSAxNC40MDM0NDE4LDguOTM5OTE1MzkgMTQuMjE4MTI5OSw3Ljg1OTU3MTA2IEMxNC4wMzI4MTgsNi43NzkyMjY3MiAxMy4wOTYxMjI0LDUuOTg5NTIyODIgMTIsNS45ODk1MjI4MiBDMTAuOTAzODc3Niw1Ljk4OTUyMjgyIDkuOTY3MTgyMDMsNi43NzkyMjY3MiA5Ljc4MTg3MDExLDcuODU5NTcxMDYgQzkuNTk2NTU4MTksOC45Mzk5MTUzOSAxMC4yMTY1MzU3LDkuOTk2NjM2MDkgMTEuMjUsMTAuMzYxOTI1IEwxMS4yNSwxMy42Mzg0NSBDMTAuMjE2ODQsMTQuMDAzNzI3MiA5LjU5NzA5NTk0LDE1LjA2MDE5OTcgOS43ODI0MDMyNCwxNi4xNDAyNDk4IEM5Ljk2NzcxMDU1LDE3LjIyMDI5OTkgMTAuOTA0MTY4MywxOC4wMDk3NzAzIDEyLDE4LjAwOTc3MDMgQzEzLjA5NTgzMTcsMTguMDA5NzcwMyAxNC4wMzIyODk1LDE3LjIyMDI5OTkgMTQuMjE3NTk2OCwxNi4xNDAyNDk4IEMxNC40MDI5MDQxLDE1LjA2MDE5OTcgMTMuNzgzMTYsMTQuMDAzNzI3MiAxMi43NSwxMy42Mzg0NSBMMTIuNzUsMTMuNjM4MDc1IFogTTEyLDcuNSBDMTIuNDE0MjEzNiw3LjUgMTIuNzUsNy44MzU3ODY0NCAxMi43NSw4LjI1IEMxMi43NSw4LjY2NDIxMzU2IDEyLjQxNDIxMzYsOSAxMiw5IEMxMS41ODU3ODY0LDkgMTEuMjUsOC42NjQyMTM1NiAxMS4yNSw4LjI1IEMxMS4yNTAzNzIyLDcuODM1OTQwNjkgMTEuNTg1OTQwNyw3LjUwMDM3MjE1IDEyLDcuNSBaIE0xMiwxNi41IEMxMS41ODU3ODY0LDE2LjUgMTEuMjUsMTYuMTY0MjEzNiAxMS4yNSwxNS43NSBDMTEuMjUsMTUuMzM1Nzg2NCAxMS41ODU3ODY0LDE1IDEyLDE1IEMxMi40MTQyMTM2LDE1IDEyLjc1LDE1LjMzNTc4NjQgMTIuNzUsMTUuNzUgQzEyLjc0OTYyNzgsMTYuMTY0MDU5MyAxMi40MTQwNTkzLDE2LjQ5OTYyNzggMTIsMTYuNSBaIi8+JiN4YTsgICAgICAgICAgICAgICAgICAgIDxwYXRoIGZpbGwtcnVsZT0ibm9uemVybyIgZmlsbD0iI0ZGRkZGRiIgaWQ9IlNoYXBlIiBkPSJNMjIuODEwNTc1LDEzLjA2MDU3NSBDMjMuMDkxOTE5NCwxMi43NzkzMjYxIDIzLjI0OTk4NSwxMi4zOTc4MTM1IDIzLjI0OTk4NSwxMiBDMjMuMjQ5OTg1LDExLjYwMjE4NjUgMjMuMDkxOTE5NCwxMS4yMjA2NzM5IDIyLjgxMDU3NSwxMC45Mzk0MjUgTDE4LjQ3MDQsNi41OTk0NzUgTDIwLjY0NTg1LDQuNDUyMzc1IEMyMS4zMDU1MTE4LDQuNjE1ODM5NDggMjEuOTkyNzEzOSw0LjMxNTc5MDM4IDIyLjMyMTI0MTQsMy43MjA4NTg0MSBDMjIuNjQ5NzY5LDMuMTI1OTI2NDUgMjIuNTM3NjgwMSwyLjM4NDUwMDY2IDIyLjA0Nzk2OTgsMS45MTMyNzAwNiBDMjEuNTU4MjU5NiwxLjQ0MjAzOTQ2IDIwLjgxMzA3MjUsMS4zNTg1MzkyNiAyMC4yMzEyMTE0LDEuNzA5Njk3NDQgQzE5LjY0OTM1MDMsMi4wNjA4NTU2MiAxOS4zNzU5NDQyLDIuNzU5MDg1NjYgMTkuNTY0NjUsMy40MTE5NzUgTDE3LjQwOTY3NSw1LjUzODYgTDEzLjA2MDU3NSwxLjE4OTQyNSBDMTIuNzc5MzI2MSwwLjkwODA4MDYzMyAxMi4zOTc4MTM1LDAuNzUwMDE0OTgzIDEyLDAuNzUwMDE0OTgzIEMxMS42MDIxODY1LDAuNzUwMDE0OTgzIDExLjIyMDY3MzksMC45MDgwODA2MzMgMTAuOTM5NDI1LDEuMTg5NDI1IEw2LjU5OTQ3NSw1LjUyOTQ1IEw0LjQ1MjYsMy4zNTM3NzUgQzQuNjE1OTcxODYsMi42OTM5OTg2MiA0LjMxNTc1MDI2LDIuMDA2NzYwNjIgMy43MjA2NzEzNCwxLjY3ODMxNTMxIEMzLjEyNTU5MjQzLDEuMzQ5ODcgMi4zODQwOTE1MiwxLjQ2MjE0NDEzIDEuOTEyOTIwNzgsMS45NTIwMzUzMiBDMS40NDE3NTAwNCwyLjQ0MTkyNjUgMS4zNTg0MzczNywzLjE4NzIzNzIyIDEuNzA5ODA3NzIsMy43NjkwNzQwNyBDMi4wNjExNzgwNyw0LjM1MDkxMDkyIDIuNzU5NTg2Myw0LjYyNDE0MTYzIDMuNDEyNSw0LjQzNTIgTDUuNTM4NzUsNi41OTAzMjUgTDEuMTg5NDI1LDEwLjkzOTQyNSBDMC45MDgwODA2MzMsMTEuMjIwNjczOSAwLjc1MDAxNDk4MywxMS42MDIxODY1IDAuNzUwMDE0OTgzLDEyIEMwLjc1MDAxNDk4MywxMi4zOTc4MTM1IDAuOTA4MDgwNjMzLDEyLjc3OTMyNjEgMS4xODk0MjUsMTMuMDYwNTc1IEw1LjUzODYsMTcuNDA5Njc1IEwzLjQxMjUsMTkuNTY0OCBDMi43NjEwNzcwNiwxOS4zNzcyNDU0IDIuMDY0ODc5MzYsMTkuNjUwNDQxNCAxLjcxNDg2MjE2LDIwLjIzMDk3MjYgQzEuMzY0ODQ0OTUsMjAuODExNTAzOSAxLjQ0ODIxOTMzLDIxLjU1NDcyMzkgMS45MTgxNjU3NywyMi4wNDMyNzE3IEMyLjM4ODExMjIxLDIyLjUzMTgxOTUgMy4xMjc1Mzc3NSwyMi42NDM5NjczIDMuNzIxMjEyMjMsMjIuMzE2NzM3NyBDNC4zMTQ4ODY3MSwyMS45ODk1MDgxIDQuNjE0ODg4OCwyMS4zMDQ0MzQ0IDQuNDUyNzUsMjAuNjQ2MjI1IEw2LjU5OTYyNSwxOC40NzA1NSBMMTAuOTM5NTc1LDIyLjgxMDU3NSBDMTEuMjIwODIzOSwyMy4wOTE5MTk0IDExLjYwMjMzNjUsMjMuMjQ5OTg1IDEyLjAwMDE1LDIzLjI0OTk4NSBDMTIuMzk3OTYzNSwyMy4yNDk5ODUgMTIuNzc5NDc2MSwyMy4wOTE5MTk0IDEzLjA2MDcyNSwyMi44MTA1NzUgTDE3LjQwOTgyNSwxOC40NjE0IEwxOS41NjQ4LDIwLjU4ODAyNSBDMTkuMzc3MjUyMywyMS4yMzk1ODc1IDE5LjY1MDU2OTEsMjEuOTM1OTAwNiAyMC4yMzEyNTYxLDIyLjI4NTkxNTYgQzIwLjgxMTk0MzEsMjIuNjM1OTMwNiAyMS41NTUzMDEyLDIyLjU1MjQyODggMjIuMDQzODYxNiwyMi4wODIzMDQ3IEMyMi41MzI0MjE5LDIxLjYxMjE4MDYgMjIuNjQ0NDQyMSwyMC44NzI1ODI0IDIyLjMxNzAxMTgsMjAuMjc4ODY3NyBDMjEuOTg5NTgxNCwxOS42ODUxNTI5IDIxLjMwNDI5MTUsMTkuMzg1MjY2OCAyMC42NDYsMTkuNTQ3NjI1IEwxOC40NzA1NSwxNy40MDA1MjUgTDIyLjgxMDU3NSwxMy4wNjA1NzUgWiBNMTIsMjEuNzUgTDIuMjUsMTIgTDEyLDIuMjUgTDIxLjc1LDEyIEwxMiwyMS43NSBaIi8+JiN4YTsgICAgICAgICAgICAgICAgICAgIDxyZWN0IGhlaWdodD0iMjQiIHdpZHRoPSIyNCIgeT0iMCIgeD0iMCIgaWQ9Il9UcmFuc3BhcmVudF9SZWN0YW5nbGVfIi8+JiN4YTsgICAgICAgICAgICAgICAgPC9nPiYjeGE7ICAgICAgICAgICAgPC9nPiYjeGE7ICAgICAgICA8L2c+JiN4YTsgICAgPC9nPiYjeGE7PC9zdmc+;fontFamily=IBM Plex Sans;fontSize=14;spacingTop=-7;labelPosition=center;align=center;" vertex="1" parent="MP2px9YScLDvGAfy4hZi-16">
            <mxGeometry x="120.00000000000045" y="70" width="48" height="48" as="geometry" />
          </mxCell>
        </object>
        <mxCell id="OowP8Bram1WtS_GlOOUc-46" value="" style="html=1;labelBackgroundColor=#ffffff;jettySize=auto;orthogonalLoop=1;fontSize=14;rounded=0;jumpStyle=gap;edgeStyle=orthogonalEdgeStyle;startArrow=oval;endArrow=oval;startFill=1;endFill=1;strokeWidth=2;dashed=1;sourcePerimeterSpacing=3;targetPerimeterSpacing=3;entryX=0;entryY=0.5;entryDx=0;entryDy=0;exitX=0.5;exitY=0;exitDx=0;exitDy=0;" edge="1" parent="MP2px9YScLDvGAfy4hZi-16" source="OowP8Bram1WtS_GlOOUc-24" target="OowP8Bram1WtS_GlOOUc-40">
          <mxGeometry width="48" height="48" relative="1" as="geometry">
            <mxPoint x="10" y="268" as="sourcePoint" />
            <mxPoint x="58" y="220" as="targetPoint" />
          </mxGeometry>
        </mxCell>
        <object label="Policies" release="v3.0.0" generation="2.0" id="OowP8Bram1WtS_GlOOUc-47">
          <mxCell style="shape=image;aspect=fixed;image=data:image/svg+xml,PD94bWwgdmVyc2lvbj0iMS4wIiBlbmNvZGluZz0iVVRGLTgiPz4KPHN2ZyB3aWR0aD0iNDhweCIgaGVpZ2h0PSI0OHB4IiB2aWV3Qm94PSIwIDAgNDggNDgiIHZlcnNpb249IjEuMSIgeG1sbnM9Imh0dHA6Ly93d3cudzMub3JnLzIwMDAvc3ZnIiB4bWxuczp4bGluaz0iaHR0cDovL3d3dy53My5vcmcvMTk5OS94bGluayI+CiAgICA8dGl0bGU+TmV0d29yayBBQ0w8L3RpdGxlPgogICAgPGcgaWQ9IlYyLUljb25zIiBzdHJva2U9Im5vbmUiIHN0cm9rZS13aWR0aD0iMSIgZmlsbD0ibm9uZSIgZmlsbC1ydWxlPSJldmVub2RkIj4KICAgICAgICA8ZyBpZD0iSUJNLS8tQ2xvdWQtLy1TZWN1cml0eSIgdHJhbnNmb3JtPSJ0cmFuc2xhdGUoLTE0NTgsIC0xMykiPgogICAgICAgICAgICA8ZyBpZD0iTmV0d29yay1BQ0wiIHRyYW5zZm9ybT0idHJhbnNsYXRlKDE0NTgsIDEzKSI+CiAgICAgICAgICAgICAgICA8cmVjdCBpZD0iUmVjdGFuZ2xlIiBmaWxsPSIjRkE0RDU2IiB4PSIwIiB5PSIwIiB3aWR0aD0iNDgiIGhlaWdodD0iNDgiPjwvcmVjdD4KICAgICAgICAgICAgICAgIDxnIGlkPSJsb2NrZWQiIHRyYW5zZm9ybT0idHJhbnNsYXRlKDEyLCAxMikiPgogICAgICAgICAgICAgICAgICAgIDxwYXRoIGQ9Ik0xOCwxMC41IEwxNi41LDEwLjUgTDE2LjUsNiBDMTYuNSwzLjUxNDcxODYzIDE0LjQ4NTI4MTQsMS41IDEyLDEuNSBDOS41MTQ3MTg2MywxLjUgNy41LDMuNTE0NzE4NjMgNy41LDYgTDcuNSwxMC41IEw2LDEwLjUgQzUuMTcxNTcyODgsMTAuNSA0LjUsMTEuMTcxNTcyOSA0LjUsMTIgTDQuNSwyMSBDNC41LDIxLjgyODQyNzEgNS4xNzE1NzI4OCwyMi41IDYsMjIuNSBMMTgsMjIuNSBDMTguODI4NDI3MSwyMi41IDE5LjUsMjEuODI4NDI3MSAxOS41LDIxIEwxOS41LDEyIEMxOS41LDExLjE3MTU3MjkgMTguODI4NDI3MSwxMC41IDE4LDEwLjUgWiBNOSw2IEM5LDQuMzQzMTQ1NzUgMTAuMzQzMTQ1OCwzIDEyLDMgQzEzLjY1Njg1NDIsMyAxNSw0LjM0MzE0NTc1IDE1LDYgTDE1LDEwLjUgTDksMTAuNSBMOSw2IFogTTE4LDIxIEw2LDIxIEw2LDEyIEwxOCwxMiBMMTgsMjEgWiIgaWQ9IlNoYXBlIiBmaWxsPSIjRkZGRkZGIiBmaWxsLXJ1bGU9Im5vbnplcm8iPjwvcGF0aD4KICAgICAgICAgICAgICAgICAgICA8cmVjdCBpZD0iX1RyYW5zcGFyZW50X1JlY3RhbmdsZV8iIHg9IjAiIHk9IjAiIHdpZHRoPSIyNCIgaGVpZ2h0PSIyNCI+PC9yZWN0PgogICAgICAgICAgICAgICAgPC9nPgogICAgICAgICAgICA8L2c+CiAgICAgICAgPC9nPgogICAgPC9nPgo8L3N2Zz4=;fontFamily=IBM Plex Sans;fontSize=14;labelPosition=center;verticalLabelPosition=bottom;align=center;verticalAlign=top;spacingTop=-7;" vertex="1" parent="MP2px9YScLDvGAfy4hZi-16">
            <mxGeometry x="250" y="70" width="48" height="48" as="geometry" />
          </mxCell>
        </object>
        <mxCell id="OowP8Bram1WtS_GlOOUc-44" value="" style="html=1;labelBackgroundColor=#ffffff;jettySize=auto;orthogonalLoop=1;fontSize=14;rounded=0;jumpStyle=gap;edgeStyle=orthogonalEdgeStyle;startArrow=oval;endArrow=oval;startFill=1;endFill=1;strokeWidth=2;dashed=1;sourcePerimeterSpacing=3;targetPerimeterSpacing=3;entryX=0;entryY=0.5;entryDx=0;entryDy=0;exitX=1;exitY=0.5;exitDx=0;exitDy=0;" edge="1" parent="MP2px9YScLDvGAfy4hZi-16" source="OowP8Bram1WtS_GlOOUc-40" target="OowP8Bram1WtS_GlOOUc-47">
          <mxGeometry width="48" height="48" relative="1" as="geometry">
            <mxPoint x="10" y="268" as="sourcePoint" />
            <mxPoint x="250" y="94" as="targetPoint" />
          </mxGeometry>
        </mxCell>
        <mxCell id="OowP8Bram1WtS_GlOOUc-1" value="" style="rounded=0;whiteSpace=wrap;html=1;fontFamily=IBM Plex Sans;fontSource=fonts%2FIBMPlexSans-Regular.woff;fontSize=14;spacingBottom=-28;spacingTop=0;labelPosition=-100;verticalLabelPosition=top;align=center;verticalAlign=bottom;spacingLeft=9;spacing=0;expand=0;recursiveResize=0;spacingRight=0;container=1;collapsible=0;strokeColor=#666666;fillColor=#f5f5f5;fontColor=#333333;" vertex="1" parent="MP2px9YScLDvGAfy4hZi-11">
          <mxGeometry x="45" y="80" width="590" height="460" as="geometry">
            <mxRectangle width="670" as="alternateBounds" />
          </mxGeometry>
        </mxCell>
        <mxCell id="OowP8Bram1WtS_GlOOUc-2" value="" style="rounded=0;whiteSpace=wrap;html=1;strokeColor=none;fillColor=#1192E8;" vertex="1" parent="OowP8Bram1WtS_GlOOUc-1">
          <mxGeometry width="7" height="37" as="geometry" />
        </mxCell>
        <mxCell id="OowP8Bram1WtS_GlOOUc-3" value="IBM VPC (Code Engine managed)" style="text;html=1;strokeColor=none;fillColor=none;align=left;verticalAlign=middle;whiteSpace=wrap;rounded=0;fontFamily=IBM Plex Sans;fontSource=fonts%2FIBMPlexSans-Regular.woff;fontSize=14;" vertex="1" parent="OowP8Bram1WtS_GlOOUc-1">
          <mxGeometry x="51" y="8" width="279" height="20" as="geometry" />
        </mxCell>
        <mxCell id="OowP8Bram1WtS_GlOOUc-4" value="" style="shape=image;aspect=fixed;image=data:image/svg+xml,PD94bWwgdmVyc2lvbj0iMS4wIiBlbmNvZGluZz0iVVRGLTgiPz4KPHN2ZyB3aWR0aD0iMjlweCIgaGVpZ2h0PSIyOHB4IiB2aWV3Qm94PSIwIDAgMjkgMjgiIHZlcnNpb249IjEuMSIgeG1sbnM9Imh0dHA6Ly93d3cudzMub3JnLzIwMDAvc3ZnIiB4bWxuczp4bGluaz0iaHR0cDovL3d3dy53My5vcmcvMTk5OS94bGluayI+CiAgICA8IS0tIEdlbmVyYXRvcjogU2tldGNoIDUzICg3MjUyMCkgLSBodHRwczovL3NrZXRjaGFwcC5jb20gLS0+CiAgICA8dGl0bGU+SUJNIFZQQyBCbGFjazwvdGl0bGU+CiAgICA8ZGVzYz5DcmVhdGVkIHdpdGggU2tldGNoLjwvZGVzYz4KICAgIDxnIGlkPSJQYWdlLTEiIHN0cm9rZT0ibm9uZSIgc3Ryb2tlLXdpZHRoPSIxIiBmaWxsPSJub25lIiBmaWxsLXJ1bGU9ImV2ZW5vZGQiPgogICAgICAgIDxnIGlkPSJJQk0tVlBDLUJsYWNrIiB0cmFuc2Zvcm09InRyYW5zbGF0ZSgwLjc1MDAwMCwgLTEuMDAwMDAwKSIgZmlsbD0iIzAwMDAwMCI+CiAgICAgICAgICAgIDxwYXRoIGQ9Ik0wLjAwMDksMS4wMDAyIEwwLjAwMDksOS4wMDAyIEw2LjU4NjksOS4wMDAyIEwyMC4wMDA5LDIyLjQxNDIgTDIwLjAwMDksMjkuMDAwMiBMMjguMDAwOSwyOS4wMDAyIEwyOC4wMDA5LDIxLjAwMDIgTDIxLjQxNTksMjEuMDAwMiBMOC4wMDA5LDcuNTg1MiBMOC4wMDA5LDEuMDAwMiBMMC4wMDA5LDEuMDAwMiBaIE0yLjAwMDksNy4wMDAyIEw2LjAwMDksNy4wMDAyIEw2LjAwMDksMy4wMDAyIEwyLjAwMDksMy4wMDAyIEwyLjAwMDksNy4wMDAyIFogTTIyLjAwMDksMjcuMDAxMiBMMjYuMDAxOSwyNy4wMDEyIEwyNi4wMDE5LDIzLjAwMDIgTDIyLjAwMDksMjMuMDAwMiBMMjIuMDAwOSwyNy4wMDEyIFoiIGlkPSJGaWxsLTEiPjwvcGF0aD4KICAgICAgICAgICAgPGcgaWQ9Ikdyb3VwLTgiIHRyYW5zZm9ybT0idHJhbnNsYXRlKDAuMDAwMDAwLCAwLjAwMTkwMCkiPgogICAgICAgICAgICAgICAgPGcgaWQ9Ikdyb3VwLTQiIHRyYW5zZm9ybT0idHJhbnNsYXRlKDExLjAwMDAwMCwgMC4wMDAwMDApIj4KICAgICAgICAgICAgICAgICAgICA8cGF0aCBkPSJNMTIuNjQ2Nyw2LjgxNzkgQzExLjU0MjcsNi44MTc5IDEwLjY0NjcsNS45MjI5IDEwLjY0NjcsNC44MTc5IEMxMC42NDY3LDMuNzEzOSAxMS41NDI3LDIuODE3OSAxMi42NDY3LDIuODE3OSBDMTMuNzUwNywyLjgxNzkgMTQuNjQ2NywzLjcxMzkgMTQuNjQ2Nyw0LjgxNzkgQzE0LjY0NTcsNS45MjE5IDEzLjc1MDcsNi44MTY5IDEyLjY0NjcsNi44MTc5IE0xNi43MzM3LDMuNTE4OSBDMTYuMzU2NywyLjQ5ODkgMTUuNTMxNywxLjY2NzkgMTQuNTE1NywxLjI4MDkgQzEyLjEyNzcsMC4zNzA5IDkuNzE3NywxLjc1NTkgOS4xNDI3LDMuOTk3OSBMMC4wMDA3LDMuOTk3OSBMMC4wMDA3LDUuOTk3OSBMOS4xNDI3LDUuOTk3OSBDOS41MDc3LDcuMzk3OSAxMC42MDE3LDguNDkwOSAxMi4wMDA3LDguODU1OSBMMTIuMDAwNywxNy45OTc5IEwxNC4wMDA3LDE3Ljk5NzkgTDE0LjAwMDcsOC44NTU5IEMxNi4yMjk3LDguMjgxOSAxNy42MTE3LDUuODk2OSAxNi43MzM3LDMuNTE4OSIgaWQ9IkZpbGwtMiI+PC9wYXRoPgogICAgICAgICAgICAgICAgPC9nPgogICAgICAgICAgICAgICAgPGcgaWQ9Ikdyb3VwLTciIHRyYW5zZm9ybT0idHJhbnNsYXRlKDAuMDAwMDAwLCAxMS4wMDAwMDApIj4KICAgICAgICAgICAgICAgICAgICA8cGF0aCBkPSJNMy42NDY3LDE1LjgxNzkgQzIuNTQyNywxNS44MTc5IDEuNjQ2NywxNC45MjI5IDEuNjQ2NywxMy44MTc5IEMxLjY0NjcsMTIuNzEzOSAyLjU0MjcsMTEuODE3OSAzLjY0NjcsMTEuODE3OSBDNC43NTA3LDExLjgxNzkgNS42NDY3LDEyLjcxMzkgNS42NDY3LDEzLjgxNzkgQzUuNjQ1NywxNC45MjE5IDQuNzUwNywxNS44MTY5IDMuNjQ2NywxNS44MTc5IEwzLjY0NjcsMTUuODE3OSBaIE0xNy4wMDA3LDEyLjk5NzkgTDcuODU4NywxMi45OTc5IEM3LjQ5MzcsMTEuNTk3OSA2LjQwMDcsMTAuNTA0OSA1LjAwMDcsMTAuMTM5OSBMNS4wMDA3LDAuOTk3OSBMMy4wMDA3LDAuOTk3OSBMMy4wMDA3LDEwLjEzOTkgQzAuNDg3NywxMC43ODQ5IC0wLjg1MTMsMTMuNjgzOSAwLjU5NDcsMTYuMTE5OSBDMS4xNTA3LDE3LjA1NTkgMi4xMTE3LDE3LjcyODkgMy4xODI3LDE3LjkyNjkgQzUuNDAyNywxOC4zMzc5IDcuMzUzNywxNi45Njk5IDcuODU4NywxNC45OTc5IEwxNy4wMDA3LDE0Ljk5NzkgTDE3LjAwMDcsMTIuOTk3OSBaIiBpZD0iRmlsbC01Ij48L3BhdGg+CiAgICAgICAgICAgICAgICA8L2c+CiAgICAgICAgICAgIDwvZz4KICAgICAgICA8L2c+CiAgICA8L2c+Cjwvc3ZnPg==;" vertex="1" parent="OowP8Bram1WtS_GlOOUc-1">
          <mxGeometry x="20" y="6.849999999999909" width="20" height="19.31" as="geometry" />
        </mxCell>
        <mxCell id="MP2px9YScLDvGAfy4hZi-20" value="" style="rounded=0;whiteSpace=wrap;html=1;fontFamily=IBM Plex Sans;fontSource=fonts%2FIBMPlexSans-Regular.woff;fontSize=14;spacingBottom=-28;spacingTop=0;labelPosition=-100;verticalLabelPosition=top;align=center;verticalAlign=bottom;spacingLeft=9;spacing=0;expand=0;recursiveResize=0;spacingRight=0;container=1;collapsible=0;strokeColor=#1192E8;fillColor=#FFFFFF;" parent="OowP8Bram1WtS_GlOOUc-1" vertex="1">
          <mxGeometry x="51" y="60" width="220" height="370" as="geometry">
            <mxRectangle width="670" as="alternateBounds" />
          </mxGeometry>
        </mxCell>
        <mxCell id="MP2px9YScLDvGAfy4hZi-21" value="" style="rounded=0;whiteSpace=wrap;html=1;strokeColor=none;fillColor=#1192E8;" parent="MP2px9YScLDvGAfy4hZi-20" vertex="1">
          <mxGeometry width="7" height="37" as="geometry" />
        </mxCell>
        <mxCell id="MP2px9YScLDvGAfy4hZi-22" value="Code Engine project" style="text;html=1;strokeColor=none;fillColor=none;align=left;verticalAlign=middle;whiteSpace=wrap;rounded=0;fontFamily=IBM Plex Sans;fontSource=fonts%2FIBMPlexSans-Regular.woff;fontSize=14;" parent="MP2px9YScLDvGAfy4hZi-20" vertex="1">
          <mxGeometry x="51" y="8" width="163" height="20" as="geometry" />
        </mxCell>
        <mxCell id="MP2px9YScLDvGAfy4hZi-7" value="" style="shape=image;verticalLabelPosition=bottom;labelBackgroundColor=default;verticalAlign=top;aspect=fixed;imageAspect=0;image=data:image/jpeg,/9j/4AAQSkZJRgABAQAAAQABAAD/2wCEAAkGBwoNBg4IDRANCAgICBENCAgIDREOCQgPFREiFhQSHxMYHSgsJCYxJxoYLTUtJTUsOjo6FyszRD8sNzQtOjcBCgoKDg0OGhAQGi8mICYtMiswNy0tNS0tKy0tLystKy0tOC03LS0tKy0tLSs3LS0rLS0tLS0rLSstLjcrLSsrN//AABEIAOEA4QMBEQACEQEDEQH/xAAcAAEAAQUBAQAAAAAAAAAAAAAABwEEBQYIAwL/xABQEAABAwEBCAkPCQYHAQAAAAAAAQIDBAUGBxESFzE20hVUVXWRlLPR0xMUFiE1UVJTc3SSk6O0wwg0QWFxgbLB4SIygoSxwkJDYmNkoaIj/8QAGwEBAAIDAQEAAAAAAAAAAAAAAAMEAQIFBgf/xAAzEQEAAQIBCQYGAwEBAQAAAAAAAQIDBAUREzIzUVJxkRIUFTGhsTRBYYHB0SFT8EIiI//aAAwDAQACEQMRAD8AnEAAAAAAAAAAAAAAAAAAAAAAAAAAAAAAAAAAAAAAAAAAAAAAAAAAAAAAAAAAAAAAAAAAAAAAAAAAAAAAAAAAAAAAAAAAAAAAAAAAAAAAAAAAAAAAAAAAAAANEu0voWbZVctntjktOvjROrxQOayGmwphRrnr9OBcyIv14C1ZwlVyO15QjruRS1nLpHuc/jidGT+HzxejTTxuMuke5z+OJ0Y8Pni9DTxuMuke5z+OJ0Y8Pni9DTxuMuke5z+OJ0Y8Pni9DTxuMuke5z+OJ0Y8Pni9DTxuMuke5z+OJ0Y8Pni9DTxuMuke5z+OJ0Y8Pni9DTxuMuke5z+OJ0Y8Pni9DTxuMuke5z+OJ0Y8Pni9DTxuMuke5z+OJ0Y8Pni9DTxue1JfypFnRs1DNBCq/tywTslez68VWt/qYnAVZv4qZi/CUbLtGmrLPir6Z6VFJVRo+CVuFEcn2LmX6FRc2DAUaqZpnNPmlic66NWQAAAAAAAAAAAAAAAAA5Guhe590NdI5cZ77WqVc5c6qszj0FvUp5R7KNzWljzdoAAAAAAAAAAADoG8JK91xUrHLhbBbMrIk8BqxseqcLnL95ycdH/0+y5ZnPSkgpJQAAAAAAAAAAAAAAAAA5Et3u7Wb6VHLOPQ29SnlHso3NaV7cRZ9PWXW0Vn1DVlpKurxJ40c5ivbiKuDGaqKmZMxpfqmm3NUebNqImr+U75J7ldqv45VdIcrvl7f6QtaOncZJ7ldqv45VdIO+Xt/pBo6dxknuV2q/jlV0g75e3+kGjp3GSe5Xar+OVXSDvl7f6QaOncZJ7ldqv45VdIO+Xt/pBo6dxknuV2q/jlV0g75e3+kGjp3GSe5Xar+OVXSDvl7f6QaOncZJ7ldqv45VdIO+Xt/pBo6dzRr71xNjWXc9BWUMLqaomtVsMj3TzSo6NYXuVMD3KmdqcBawl+5crmKp+X6R3aKYpzxCJjoKqfbwGh1Rv7JyEZycftI5ftbsaqTCkmAAAAAAAAAAAAAAAAADkS3e7tZvpUcs49Db1KeUeyjc1pZe9pp9Zvn3w3EWJ2VTazrOpDhrgAAAAAAABGHygdEqXf1nu8pewG0nl+YRXtVAp1VNPt4DQ6o39k5CM5OP2kcv2t2NVJhSTAAD5kzGYYlZTKSQgqWEyr314SaEFUrCZy99eEliEFUysJnu768Kk1MQhqmVhNI/wncKk1MQgqqnex88r/AAnekpPTEbkNVVW9YTTSeG/0lJqaY3Iaq6t8rCWeXD+/J6bucnimnchmurfPV59Xl8OT03c5t2adxpK989VOry+HJ6bucz2adxpK989UsXu3OW5eNXKrl6vL23LhX99TzeU4iMRObdHs9Nk2ZnDxM/X3bMUF9yJbvd2s30qOWceht6lPKPZRua0sve00+s3z74biLE7KptZ1nUhw1wAAAAAAAAjD5QOiVLv6z3eUvYDaTy/MIr2qgU6qmn28BodUb+ychGcnH7SOX7W7GqkwpJgAB8vTtGYYlayxPXMmE3iYRVUys5aSZczVX70JIrp3oardW5Zy2fUrmYq/enOSxdo3oarNe5Zy2TWLmicv3t5yWL1G9FVh7u5ZS2JXrmhcv8TOckjEW96GcLe4VnLc9aS5oHL/ABM5yaMVa4kU4O/w+yymuYtZc1O9f449Ylpxlji90VWCxHB6x+1nJclbCr82f6cWsSxjsPxe6Ocn4ng9Y/b47ELZ2s/04tY27/h+L3Y8PxPB6x+zsQtnaz/Ti1jPf8Px+7Ph+J4PWP2ka4ihqKa59lNOxYJ2zSK6NyoqoiuwpmU4WPuU3L01UTnj+HfwFqq3YimuM0/z7s+U1xyJbvd2s30qOWceht6lPKPZRua0sve00+s3z74biLE7KptZ1nUhw1wAAAAAAAAjD5QOiVLv6z3eUvYDaTy/MIr2qgU6qmn28BodUb+ychGcnH7SOX7W7GqkwpJgAAAAAAAAAAAAAAAAA5Et3u7Wb6VHLOPQ29SnlHso3NaWXvaafWb598NxFidlU2s6zqQ4a4AAAAAAAARh8oHRKl39Z7vKXsBtJ5fmEV7VQKdVTT7eA0OqN/ZOQjOTj9pHL9rdjVSYUkwAAAAAAAAAAAAAAAAAciW73drN9KjlnHobepTyj2UbmtLL3tNPrN8++G4ixOyqbWdZ1IcNcAAAAAAAAIw+UDolS7+s93lL2A2k8vzCK9qoFOqpp9vAaHVG/snIRnJx+0jl+1uxqpMKSYAAAAAAAAAAAAAAAAAORLd7u1m+lRyzj0NvUp5R7KNzWll72mn1m+ffDcRYnZVNrOs6kOGuAAAAAAAAEYfKB0Spd/We7yl7AbSeX5hFe1UCnVU0+3gNDqjf2TkIzk4/aRy/a3Y1UmFJMAAAAAAAAANEulu3lirn0dI1ipTvVk1TMiuxnpnRqYfo76nUw2AiqmKrnzcLGZWqormi1Hl5zP4YXs6tbwofVfqWvD7P16qfi+I+nQ7O7X8KH1X6mfDrH16s+L4j6dFOzu1/Ch9V+pnw6x9ep4viPp0U7PLX8KH1X6jw2x9ep4tiPp0b7chaU9ZYjKuZWrM+V7VVjcVuBHYE7RycZaptXZpp8ndwN6q9Ziurz/lmiqtuRLd7u1m+lRyzj0NvUp5R7KNzWll72mn1m+ffDcRYnZVNrOs6kOGuAAAAAAAAEYfKB0Spd/We7yl7AbSeX5hFe1UCnVU0+3gNDqjf2TkIzk4/aRy/a3Y1UmFJMAAAAAAAAAIKqvnMi51WZ2H6/wBo9RRqw8Jc16ucvJTdq+cKGTOphQyznUwobM50sXu9F4/Ly/jU89lHbz9nqslfDU/f3bMUXRciW73drN9KjlnHobepTyj2UbmtLL3tNPrN8++G4ixOyqbWdZ1IcNcAAAAAAAAIw+UDolS7+s93lL2A2k8vzCK9qoFOqpp9vAaHVG/snIRnJx+0jl+1uxqpMKSYAAAAAAAAAQXU/OJPLO/Eenp8oeEua9XOWUuOY1101K1URzVkdha5MKL/APNSHFzms1f75reToicTRn+vtKWutIPFx+g3mOB26t713Yp3HWkHi4/QbzDt1bzsU7lOtKfxcfoN5h26t52Kdz1jY1rcVqIxvgsREQxMzPmzERHk+jDLkS3e7tZvpUcs49Db1KeUeyjc1pWkUr2SJKxzopWLhZJE5WyMXvoqG0xE+bWJzeS72ZtHbdZxqbWNdHRwx0baSrebM2jtus41NrDR0cMdDSVbzZm0dt1nGptYaOjhjoaSrebM2jtus41NrDR0cMdDSVbzZm0dt1nGptYaOjhjoaSrebM2jtus41NrDR0cMdDSVbzZm0dt1nGptYaOjhjoaSrebM2jtus41NrDR0cMdDSVb3jU19XMxGTTT1LGuxmsqZpJGNdgwYcDlXt9teEzFNMeUMTXM+a3MtU+3gNDqjf2TkIzk4/aRy/a3Y1UmFJMAAAAAAAAAILqfnD/ACzvxHpqfKHg7mvVzllrjNKKXyruTcQYvY1f75rmTfiqPv7Sl44D2AAAAAIHvg3r7Ubbs9oWdFshQ107plhie1tRSPeuM9uK5UwphVcGDv4Powr1cPi6OzFNc5phXuWpmc8NTyf3S7n1Ps9Yn7za4kehqMn90u59T7PWHebXEaGoyf3S7n1Ps9Yd5tcRoajJ/dLufU+z1jPebXEaGoyf3S7n1Ps9Yx3m1xGhqMn90u59T7PWHebXEaGoyf3S7n1Ps9Yd5tcRoajJ/dLufU+z1h3m1xGhqMn90u59T7PWHebXEaGoyf3S7n1Ps9Yd5tcRoanrTXuLppZ2xJQyxYy4FkqHxMiYnfVVd/TCJxVmI1mdDUn+4W5ptkXORWZjJNOjnS1k7EwNlmd+9g+pO0ifU1DkX7ukrmpZpp7MZmwETYAAAAAAAAAQZU/OH+Wd+I9LT5Q8Fc16ucsrcbpPS+VdybiHF7Gr/fNcyZ8VR9/aUvHAexAAAAAAAALeskxWIvfcb0RnaVzmha9cEnYRdteUj8aLD/qIq4zSlonPD2NW4AAAAAAAAAAeb5Ub9ZmIazVmW8lexv8Ahcv2YDaKJlFN+I+S3fbUbf8AA9fswG8WZn5opxlMfKVvJdLC3/LkX7MXnNow8z80c5Roj5StpLsKdv8AlTL9mJzm8YSqfnCKcq24/wCZ9Fu+7ykbnhn+7E5zeMDXPzhHOWrUf8z6ftHErsaVz8yPeqoi50wrhOtH8RmeaqntVTLL3G6T0vlXcm4hxexq/wB813JnxVH39pS6cF7EAAAAAAAAx1tPxYWL35PyJ7EZ5lXxE5ohh+uCz2VXts3Y78akw/7ilW9GapcsTnpXxCmAAAAAAAAAAC3qDalFWxlQS0qdbF1BNSqVsZUE1KpWxdQTUqtbF1JPSqVrQkRMzcbpPS+VdyakGK2NX++a/kz4qj7+0pcOE9kAAAAAAAAYS6l+LSxr35v7VLWFjPVKnjZzUxza31wXuy53bbTc0/Gs3D/vO/I5+KjNW6eEnPb+7LFdaAAAAAAAAAAD4fGi58P3Gc7WaYl4voY1z43CZ7co5s0y8H2RTrnx/SNtLU0nCW5eL7nqRc/VPT/Q209SOcBane8H3KUC5+q/c/8AQ2jE1w0nJlid/V4vuKs12fq3rP0NoxlyNyOckYad/VGMzUbK5qZmyKiYc+BFOxTOeHlK4zVTH1ZW47Sel8o7k3EOK2NX++a7kz4qj7+0pcOG9kAAAAAAAAa3dw/FoYV79T/YpdwMZ6p5OdlGc1FPP8NN64On2XI7bebjX41j4f8AkP8AyOVjYzXPs7eAnPa+7OlRdAAAAAAAAAAAAAAAAACEKn5w/wAq78R6Gnyh4C5r1c5ZS47Sal8o7k1IcVsalzJnxVH39pS2cR7MAAAAAAAA1K+M/Fs2Be/WYP8Awp0cnRnrq5flycrzmt08/wAS0Drg6/ZcLtpIuAfjWBh/5T/yOJlCM137PRZLnPY+8tkKTogAAAAAAAAAAAAAAAABCFT84f5V34jv0+UPn9zXq5yytx2k1L5R3JqRYrZVLuTPiqPv7Slo4r2YAAAAAAABpl9DuVT+e/DU6WTNpVy/Lj5a2VPP8SjfCp23nM6Ur2+jf85J+Rwco7b7Q9Rkn4eOctpKDpgAAAAAAAAAAAAAAAABCNT84f5V34jvU+UPn9zXq5yyNy00cd0FPNI5sUTJHY8kio1jf2FTOpHiImbcxC1k6umjE0VVTmj+faUmbO2btqm9eznOVobnDPR63vmH/sp6wbO2Ztqm9eznGgucM9DvmH/sp6wbPWZtql9eznGgucM9DvmH/sp6wbPWZtql9eznGgu8M9DvmH/sp6wbPWZtql9eznGgu8M9DvmH/sp6wbPWZtql9eznM93u8M9DvmH/ALKesKbP2Ztql9eznHd7vDPQ75h/7KesGz9l7apfXs5x3e7wz0O+Yfjp6w1S+JaVJPZsDIJoal7KvGc2CRr3NTEVMOBFL+T7VdFczVEx/DlZWv2rlqmKKon+flP0loJ13BSle30c/m5PyOFlHbfaHqckfDRzltJQdMAAAAAAAAAAAAAAAAAITqmqlVI1e0qTORUXOi4x3aZ/iHz+7Ga5Vzn3eJu0UMgZZUMsqGRQyyoZFDLKhlkNhQyylK9y1UubRV7SOqpFb9aYcH5HCyhtvtD1WSfho5y2goumAAAAAAAAAAAAAAAAAGpXQ3GtqKp1XTvbTyzOxpopUXqT3LndhTN/2XLOK7EdmqHExuR4vVzctzmmfPdzYfsBr/G03DJqk/faN0qPgV/ij1U7Aa/xtNwyao79Ruk8Cv8AFHqdgFf42m4ZNUz36jdLPgd/ij1U7AK/xtNwyapnv9G6TwO/xR6nYBX+NpuGTVHf6N0ngd7ij1Uyf1/jabhk1TPiFvdLPgd7ij1Mn9oeNpuGTVM+IW90ngl7ij1UyfWh42m4ZNUz4hb3Sz4Je4o9TJ9aHjabhk1R4jb3SeCXuKPVTJ7aHjabhk1TPiNvdJ4Je4o9XrS3vKlZk6tPEyLD+11ujnSKne7aIYqylTm/80z90lGRK8//ALqjN9G/UNJFT0bKWJMSGBmKxv0/b9vOcquua6pqq85d+1bpt0RRTH8Q9zRuAAAAAAAAAAAAAAAAAAAAAAAAAAAAAAAAAAAAAAAAAAAAAAAAAAAAAAAAAAAAAAAAAAAAAAAAAAAAAAAAAAAAAAAAAAAAAAAAAAAAAAAAAAAAAAAAAAAAAAAAAAAAAAAAAAAAAAAAAAAAAAAAD//Z;" parent="MP2px9YScLDvGAfy4hZi-20" vertex="1">
          <mxGeometry x="14" y="4" width="30" height="30" as="geometry" />
        </mxCell>
        <mxCell id="MP2px9YScLDvGAfy4hZi-34" value="Application" style="shape=image;aspect=fixed;image=data:image/svg+xml,PHN2ZyBpZD0iTGF5ZXJfMSIgZGF0YS1uYW1lPSJMYXllciAxIiB4bWxucz0iaHR0cDovL3d3dy53My5vcmcvMjAwMC9zdmciIHZpZXdCb3g9IjAgMCA0OSA0OSI+PGRlZnM+PHN0eWxlPi5jbHMtMXtmaWxsOiNhNTZlZmY7fS5jbHMtMntmaWxsOm5vbmU7fS5jbHMtM3tmaWxsOiNmZmY7ZmlsbC1ydWxlOmV2ZW5vZGQ7fTwvc3R5bGU+PC9kZWZzPjxyZWN0IGNsYXNzPSJjbHMtMSIgeD0iMC41IiB5PSIwLjUiIHdpZHRoPSI0OCIgaGVpZ2h0PSI0OCIgcng9IjgiLz48cmVjdCBjbGFzcz0iY2xzLTIiIHg9IjE0LjczIiB5PSIxNC41IiB3aWR0aD0iMjAiIGhlaWdodD0iMjAiLz48cmVjdCBjbGFzcz0iY2xzLTIiIHg9IjE0LjUiIHk9IjE0LjUiIHdpZHRoPSIyMCIgaGVpZ2h0PSIyMCIvPjxwYXRoIGlkPSJGaWxsLTEiIGNsYXNzPSJjbHMtMyIgZD0iTTE2LjI1LDI0LjIySDI0VjE2LjQ5SDE2LjI1Wk0yNCwyNS43N0gxNi4yNWExLjU0LDEuNTQsMCwwLDEtMS41NC0xLjU1VjE2LjQ5YTEuNTUsMS41NSwwLDAsMSwxLjU0LTEuNTVIMjRhMS41NSwxLjU1LDAsMCwxLDEuNTUsMS41NXY3LjczQTEuNTQsMS41NCwwLDAsMSwyNCwyNS43N1oiLz48cGF0aCBpZD0iRmlsbC0zIiBjbGFzcz0iY2xzLTMiIGQ9Ik0zMS43MiwxOS41OGgtMy4xYTEuNTUsMS41NSwwLDAsMC0xLjU0LDEuNTV2My4wOWExLjU0LDEuNTQsMCwwLDAsMS41NCwxLjU1aDMuMWExLjU0LDEuNTQsMCwwLDAsMS41NC0xLjU1VjIxLjEzYTEuNTUsMS41NSwwLDAsMC0xLjU0LTEuNTVabS0zLjEsNC42NGgzLjFWMjEuMTNoLTMuMVoiLz48cGF0aCBpZD0iRmlsbC00IiBjbGFzcz0iY2xzLTMiIGQ9Ik0zMS43MiwyNy4zMWgtMy4xYTEuNTUsMS41NSwwLDAsMC0xLjU0LDEuNTVWMzJhMS41NCwxLjU0LDAsMCwwLDEuNTQsMS41NWgzLjFBMS41NCwxLjU0LDAsMCwwLDMzLjI2LDMyVjI4Ljg2YTEuNTUsMS41NSwwLDAsMC0xLjU0LTEuNTVaTTI4LjYyLDMyaDMuMVYyOC44NmgtMy4xWiIvPjxwYXRoIGlkPSJGaWxsLTUiIGNsYXNzPSJjbHMtMyIgZD0iTTI0LDI3LjMxSDIwLjg5YTEuNTUsMS41NSwwLDAsMC0xLjU0LDEuNTVWMzJhMS41NCwxLjU0LDAsMCwwLDEuNTQsMS41NUgyNEExLjU0LDEuNTQsMCwwLDAsMjUuNTMsMzJWMjguODZBMS41NSwxLjU1LDAsMCwwLDI0LDI3LjMxWk0yMC44OSwzMkgyNFYyOC44NkgyMC44OVoiLz48L3N2Zz4=;fontFamily=IBM Plex Sans;fontSource=fonts%2FIBMPlexSans-Regular.woff;fontSize=14;labelPosition=center;verticalLabelPosition=bottom;align=center;verticalAlign=top;spacingTop=-7;" parent="MP2px9YScLDvGAfy4hZi-20" vertex="1">
          <mxGeometry x="51" y="70" width="48" height="48" as="geometry" />
        </mxCell>
        <mxCell id="MP2px9YScLDvGAfy4hZi-37" value="Job" style="shape=image;aspect=fixed;image=data:image/svg+xml,PHN2ZyBpZD0iTGF5ZXJfMSIgZGF0YS1uYW1lPSJMYXllciAxIiB4bWxucz0iaHR0cDovL3d3dy53My5vcmcvMjAwMC9zdmciIHZpZXdCb3g9IjAgMCA0OSA0OSI+PGRlZnM+PHN0eWxlPi5jbHMtMXtmaWxsOiNhNTZlZmY7fS5jbHMtMntmaWxsOm5vbmU7fS5jbHMtM3tmaWxsOiNmZmY7ZmlsbC1ydWxlOmV2ZW5vZGQ7fTwvc3R5bGU+PC9kZWZzPjxyZWN0IGNsYXNzPSJjbHMtMSIgeD0iMC41IiB5PSIwLjUiIHdpZHRoPSI0OCIgaGVpZ2h0PSI0OCIgcng9IjgiLz48cmVjdCBjbGFzcz0iY2xzLTIiIHg9IjE0LjUiIHk9IjE0LjUiIHdpZHRoPSIyMCIgaGVpZ2h0PSIyMCIvPjxwYXRoIGlkPSJGaWxsLTEiIGNsYXNzPSJjbHMtMyIgZD0iTTE2Ljc5LDMyLjIxSDMyLjIxVjIxLjQySDE2Ljc5Wm0wLTEyLjM0SDMyLjIxVjE2Ljc5SDE2Ljc5Wm0xNS40Mi00LjYySDE2Ljc5YTEuNTQsMS41NCwwLDAsMC0xLjU0LDEuNTRWMzIuMjFhMS41NCwxLjU0LDAsMCwwLDEuNTQsMS41NEgzMi4yMWExLjU0LDEuNTQsMCwwLDAsMS41NC0xLjU0VjE2Ljc5YTEuNTQsMS41NCwwLDAsMC0xLjU0LTEuNTRaIi8+PHBvbHlnb24gaWQ9IkZpbGwtMyIgY2xhc3M9ImNscy0zIiBwb2ludHM9IjIwLjQ2IDI0LjYzIDIyLjYzIDI2LjgxIDIwLjQ2IDI5IDIxLjU1IDMwLjA4IDI0LjgyIDI2LjgxIDIxLjU1IDIzLjU0IDIwLjQ2IDI0LjYzIi8+PC9zdmc+;fontFamily=IBM Plex Sans;fontSource=fonts%2FIBMPlexSans-Regular.woff;fontSize=14;labelPosition=center;verticalLabelPosition=bottom;align=center;verticalAlign=top;spacingTop=-7;" parent="MP2px9YScLDvGAfy4hZi-20" vertex="1">
          <mxGeometry x="51" y="210" width="48" height="48" as="geometry" />
        </mxCell>
        <mxCell id="MP2px9YScLDvGAfy4hZi-90" style="edgeStyle=orthogonalEdgeStyle;rounded=0;orthogonalLoop=1;jettySize=auto;html=1;exitX=1;exitY=0.5;exitDx=0;exitDy=0;entryX=0;entryY=0.25;entryDx=0;entryDy=0;" parent="1" source="MP2px9YScLDvGAfy4hZi-72" edge="1">
          <mxGeometry relative="1" as="geometry">
            <Array as="points">
              <mxPoint x="650" y="834" />
              <mxPoint x="650" y="902" />
            </Array>
            <mxPoint x="820" y="901.9999999999998" as="targetPoint" />
          </mxGeometry>
        </mxCell>
        <mxCell id="MP2px9YScLDvGAfy4hZi-91" value="SELECT * FROM XYZ" style="edgeLabel;html=1;align=left;verticalAlign=middle;resizable=0;points=[];fontStyle=2" parent="MP2px9YScLDvGAfy4hZi-90" vertex="1" connectable="0">
          <mxGeometry x="-0.8304" y="3" relative="1" as="geometry">
            <mxPoint x="-7" y="-11" as="offset" />
          </mxGeometry>
        </mxCell>
        <mxCell id="MP2px9YScLDvGAfy4hZi-96" value="postgres://&amp;lt;some-user-defined-service-endpoint&amp;gt;:5432" style="edgeLabel;html=1;align=left;verticalAlign=middle;resizable=0;points=[];fontStyle=1;fontColor=#000099;" parent="MP2px9YScLDvGAfy4hZi-90" vertex="1" connectable="0">
          <mxGeometry x="-0.0403" y="-1" relative="1" as="geometry">
            <mxPoint x="57" y="155" as="offset" />
          </mxGeometry>
        </mxCell>
        <mxCell id="MP2px9YScLDvGAfy4hZi-72" value="Code Engine Application" style="shape=image;aspect=fixed;image=data:image/svg+xml,PHN2ZyBpZD0iTGF5ZXJfMSIgZGF0YS1uYW1lPSJMYXllciAxIiB4bWxucz0iaHR0cDovL3d3dy53My5vcmcvMjAwMC9zdmciIHZpZXdCb3g9IjAgMCA0OSA0OSI+PGRlZnM+PHN0eWxlPi5jbHMtMXtmaWxsOiNhNTZlZmY7fS5jbHMtMntmaWxsOm5vbmU7fS5jbHMtM3tmaWxsOiNmZmY7ZmlsbC1ydWxlOmV2ZW5vZGQ7fTwvc3R5bGU+PC9kZWZzPjxyZWN0IGNsYXNzPSJjbHMtMSIgeD0iMC41IiB5PSIwLjUiIHdpZHRoPSI0OCIgaGVpZ2h0PSI0OCIgcng9IjgiLz48cmVjdCBjbGFzcz0iY2xzLTIiIHg9IjE0LjczIiB5PSIxNC41IiB3aWR0aD0iMjAiIGhlaWdodD0iMjAiLz48cmVjdCBjbGFzcz0iY2xzLTIiIHg9IjE0LjUiIHk9IjE0LjUiIHdpZHRoPSIyMCIgaGVpZ2h0PSIyMCIvPjxwYXRoIGlkPSJGaWxsLTEiIGNsYXNzPSJjbHMtMyIgZD0iTTE2LjI1LDI0LjIySDI0VjE2LjQ5SDE2LjI1Wk0yNCwyNS43N0gxNi4yNWExLjU0LDEuNTQsMCwwLDEtMS41NC0xLjU1VjE2LjQ5YTEuNTUsMS41NSwwLDAsMSwxLjU0LTEuNTVIMjRhMS41NSwxLjU1LDAsMCwxLDEuNTUsMS41NXY3LjczQTEuNTQsMS41NCwwLDAsMSwyNCwyNS43N1oiLz48cGF0aCBpZD0iRmlsbC0zIiBjbGFzcz0iY2xzLTMiIGQ9Ik0zMS43MiwxOS41OGgtMy4xYTEuNTUsMS41NSwwLDAsMC0xLjU0LDEuNTV2My4wOWExLjU0LDEuNTQsMCwwLDAsMS41NCwxLjU1aDMuMWExLjU0LDEuNTQsMCwwLDAsMS41NC0xLjU1VjIxLjEzYTEuNTUsMS41NSwwLDAsMC0xLjU0LTEuNTVabS0zLjEsNC42NGgzLjFWMjEuMTNoLTMuMVoiLz48cGF0aCBpZD0iRmlsbC00IiBjbGFzcz0iY2xzLTMiIGQ9Ik0zMS43MiwyNy4zMWgtMy4xYTEuNTUsMS41NSwwLDAsMC0xLjU0LDEuNTVWMzJhMS41NCwxLjU0LDAsMCwwLDEuNTQsMS41NWgzLjFBMS41NCwxLjU0LDAsMCwwLDMzLjI2LDMyVjI4Ljg2YTEuNTUsMS41NSwwLDAsMC0xLjU0LTEuNTVaTTI4LjYyLDMyaDMuMVYyOC44NmgtMy4xWiIvPjxwYXRoIGlkPSJGaWxsLTUiIGNsYXNzPSJjbHMtMyIgZD0iTTI0LDI3LjMxSDIwLjg5YTEuNTUsMS41NSwwLDAsMC0xLjU0LDEuNTVWMzJhMS41NCwxLjU0LDAsMCwwLDEuNTQsMS41NUgyNEExLjU0LDEuNTQsMCwwLDAsMjUuNTMsMzJWMjguODZBMS41NSwxLjU1LDAsMCwwLDI0LDI3LjMxWk0yMC44OSwzMkgyNFYyOC44NkgyMC44OVoiLz48L3N2Zz4=;fontFamily=IBM Plex Sans;fontSource=fonts%2FIBMPlexSans-Regular.woff;fontSize=14;labelPosition=center;verticalLabelPosition=bottom;align=center;verticalAlign=top;spacingTop=-7;" parent="1" vertex="1">
          <mxGeometry x="330" y="810" width="48" height="48" as="geometry" />
        </mxCell>
        <mxCell id="MP2px9YScLDvGAfy4hZi-99" style="edgeStyle=orthogonalEdgeStyle;rounded=0;orthogonalLoop=1;jettySize=auto;html=1;exitX=1;exitY=0.5;exitDx=0;exitDy=0;entryX=0;entryY=0.5;entryDx=0;entryDy=0;" parent="1" target="MP2px9YScLDvGAfy4hZi-77" edge="1">
          <mxGeometry relative="1" as="geometry">
            <mxPoint x="868" y="914" as="sourcePoint" />
          </mxGeometry>
        </mxCell>
        <mxCell id="MP2px9YScLDvGAfy4hZi-77" value="PostgreSQL" style="shape=image;aspect=fixed;image=data:image/svg+xml,PHN2ZyBpZD0iTGF5ZXJfMSIgZGF0YS1uYW1lPSJMYXllciAxIiB4bWxucz0iaHR0cDovL3d3dy53My5vcmcvMjAwMC9zdmciIHZpZXdCb3g9IjAgMCA0OSA0OSI+PGRlZnM+PHN0eWxlPi5jbHMtMXtmaWxsOiMwZjYyZmU7fS5jbHMtMntmaWxsOm5vbmU7fS5jbHMtM3tmaWxsOiNmZmY7ZmlsbC1ydWxlOmV2ZW5vZGQ7fTwvc3R5bGU+PC9kZWZzPjxyZWN0IGNsYXNzPSJjbHMtMSIgeD0iMC41IiB5PSIwLjUiIHdpZHRoPSI0OCIgaGVpZ2h0PSI0OCIgcng9IjgiLz48cmVjdCBjbGFzcz0iY2xzLTIiIHg9IjE0LjUiIHk9IjE0LjUiIHdpZHRoPSIyMCIgaGVpZ2h0PSIyMCIvPjxwYXRoIGlkPSJGaWxsLTEiIGNsYXNzPSJjbHMtMyIgZD0iTTE4LjY1LDMyLjU5aDExLjdWMjguMjFIMTguNjVabTAtNS44NWgxMS43VjIyLjM2SDE4LjY1Wm0wLTUuODRoMTEuN1YxNi41MUgxOC42NVptMTEuNy01Ljg1SDE4LjY1YTEuNDYsMS40NiwwLDAsMC0xLjQ2LDEuNDZWMzIuNTlhMS40NiwxLjQ2LDAsMCwwLDEuNDYsMS40NmgxMS43YTEuNDYsMS40NiwwLDAsMCwxLjQ2LTEuNDZWMTYuNTFhMS40NiwxLjQ2LDAsMCwwLTEuNDYtMS40NloiLz48cGF0aCBpZD0iRmlsbC0zIiBjbGFzcz0iY2xzLTMiIGQ9Ik0yMC44NSwxOGEuNzQuNzQsMCwxLDEtLjc0LjczLjczLjczLDAsMCwxLC43NC0uNzMiLz48cGF0aCBpZD0iRmlsbC00IiBjbGFzcz0iY2xzLTMiIGQ9Ik0yMC44NSwyMy44MmEuNzMuNzMsMCwxLDEtLjc0LjczLjczLjczLDAsMCwxLC43NC0uNzMiLz48cGF0aCBpZD0iRmlsbC01IiBjbGFzcz0iY2xzLTMiIGQ9Ik0yMC44NSwyOS42N2EuNzMuNzMsMCwxLDEsMCwxLjQ2LjczLjczLDAsMSwxLDAtMS40NiIvPjwvc3ZnPg==;fontFamily=IBM Plex Sans;fontSource=fonts%2FIBMPlexSans-Regular.woff;fontSize=14;labelPosition=center;verticalLabelPosition=bottom;align=center;verticalAlign=top;spacingTop=-7;" parent="1" vertex="1">
          <mxGeometry x="1210" y="890" width="48" height="48" as="geometry" />
        </mxCell>
        <mxCell id="MP2px9YScLDvGAfy4hZi-92" style="edgeStyle=orthogonalEdgeStyle;rounded=0;orthogonalLoop=1;jettySize=auto;html=1;entryX=0;entryY=0.75;entryDx=0;entryDy=0;exitX=1;exitY=0.5;exitDx=0;exitDy=0;" parent="1" source="MP2px9YScLDvGAfy4hZi-78" edge="1">
          <mxGeometry relative="1" as="geometry">
            <mxPoint x="380" y="994" as="sourcePoint" />
            <Array as="points">
              <mxPoint x="650" y="1004" />
              <mxPoint x="650" y="926" />
            </Array>
            <mxPoint x="820" y="925.9999999999998" as="targetPoint" />
          </mxGeometry>
        </mxCell>
        <mxCell id="MP2px9YScLDvGAfy4hZi-93" value="INSERT INTO XYZ (...) VALUES (...)" style="edgeLabel;html=1;align=left;verticalAlign=middle;resizable=0;points=[];fontStyle=2" parent="MP2px9YScLDvGAfy4hZi-92" vertex="1" connectable="0">
          <mxGeometry x="-0.8108" y="1" relative="1" as="geometry">
            <mxPoint x="-14" y="-13" as="offset" />
          </mxGeometry>
        </mxCell>
        <mxCell id="MP2px9YScLDvGAfy4hZi-78" value="Code Engine Job" style="shape=image;aspect=fixed;image=data:image/svg+xml,PHN2ZyBpZD0iTGF5ZXJfMSIgZGF0YS1uYW1lPSJMYXllciAxIiB4bWxucz0iaHR0cDovL3d3dy53My5vcmcvMjAwMC9zdmciIHZpZXdCb3g9IjAgMCA0OSA0OSI+PGRlZnM+PHN0eWxlPi5jbHMtMXtmaWxsOiNhNTZlZmY7fS5jbHMtMntmaWxsOm5vbmU7fS5jbHMtM3tmaWxsOiNmZmY7ZmlsbC1ydWxlOmV2ZW5vZGQ7fTwvc3R5bGU+PC9kZWZzPjxyZWN0IGNsYXNzPSJjbHMtMSIgeD0iMC41IiB5PSIwLjUiIHdpZHRoPSI0OCIgaGVpZ2h0PSI0OCIgcng9IjgiLz48cmVjdCBjbGFzcz0iY2xzLTIiIHg9IjE0LjUiIHk9IjE0LjUiIHdpZHRoPSIyMCIgaGVpZ2h0PSIyMCIvPjxwYXRoIGlkPSJGaWxsLTEiIGNsYXNzPSJjbHMtMyIgZD0iTTE2Ljc5LDMyLjIxSDMyLjIxVjIxLjQySDE2Ljc5Wm0wLTEyLjM0SDMyLjIxVjE2Ljc5SDE2Ljc5Wm0xNS40Mi00LjYySDE2Ljc5YTEuNTQsMS41NCwwLDAsMC0xLjU0LDEuNTRWMzIuMjFhMS41NCwxLjU0LDAsMCwwLDEuNTQsMS41NEgzMi4yMWExLjU0LDEuNTQsMCwwLDAsMS41NC0xLjU0VjE2Ljc5YTEuNTQsMS41NCwwLDAsMC0xLjU0LTEuNTRaIi8+PHBvbHlnb24gaWQ9IkZpbGwtMyIgY2xhc3M9ImNscy0zIiBwb2ludHM9IjIwLjQ2IDI0LjYzIDIyLjYzIDI2LjgxIDIwLjQ2IDI5IDIxLjU1IDMwLjA4IDI0LjgyIDI2LjgxIDIxLjU1IDIzLjU0IDIwLjQ2IDI0LjYzIi8+PC9zdmc+;fontFamily=IBM Plex Sans;fontSource=fonts%2FIBMPlexSans-Regular.woff;fontSize=14;labelPosition=center;verticalLabelPosition=bottom;align=center;verticalAlign=top;spacingTop=-7;" parent="1" vertex="1">
          <mxGeometry x="330" y="980" width="48" height="48" as="geometry" />
        </mxCell>
        <mxCell id="MP2px9YScLDvGAfy4hZi-98" style="edgeStyle=orthogonalEdgeStyle;rounded=0;orthogonalLoop=1;jettySize=auto;html=1;exitX=1;exitY=0.5;exitDx=0;exitDy=0;entryX=0;entryY=0.5;entryDx=0;entryDy=0;" parent="1" source="MP2px9YScLDvGAfy4hZi-97" target="MP2px9YScLDvGAfy4hZi-72" edge="1">
          <mxGeometry relative="1" as="geometry" />
        </mxCell>
        <mxCell id="MP2px9YScLDvGAfy4hZi-106" value="https://my-custom-domain.com" style="edgeLabel;html=1;align=left;verticalAlign=middle;resizable=0;points=[];fontStyle=2" parent="MP2px9YScLDvGAfy4hZi-98" vertex="1" connectable="0">
          <mxGeometry x="0.1664" y="-1" relative="1" as="geometry">
            <mxPoint x="-121" y="-15" as="offset" />
          </mxGeometry>
        </mxCell>
        <mxCell id="MP2px9YScLDvGAfy4hZi-97" value="End-user&#xa;(browser)" style="shape=image;aspect=fixed;image=data:image/svg+xml,PHN2ZyBpZD0iTGF5ZXJfMSIgZGF0YS1uYW1lPSJMYXllciAxIiB4bWxucz0iaHR0cDovL3d3dy53My5vcmcvMjAwMC9zdmciIHZpZXdCb3g9IjAgMCA0OSA0OSI+PGRlZnM+PHN0eWxlPi5jbHMtMXtmaWxsOm5vbmU7fS5jbHMtMntmaWxsOiNmZmY7ZmlsbC1ydWxlOmV2ZW5vZGQ7fTwvc3R5bGU+PC9kZWZzPjxyZWN0IHg9IjAuNSIgeT0iMC41IiB3aWR0aD0iNDgiIGhlaWdodD0iNDgiIHJ4PSIyNCIvPjxyZWN0IGNsYXNzPSJjbHMtMSIgeD0iMTQuNSIgeT0iMTQuNSIgd2lkdGg9IjIwIiBoZWlnaHQ9IjIwIi8+PHBhdGggaWQ9IkZpbGwtMSIgY2xhc3M9ImNscy0yIiBkPSJNMTcuODcsMjcuODFIMzEuMTNWMTguNTRIMTcuODdabTEzLjI2LDEuMzNIMTcuODdhMS4zMywxLjMzLDAsMCwxLTEuMzItMS4zM1YxOC41NGExLjMzLDEuMzMsMCwwLDEsMS4zMi0xLjMzSDMxLjEzYTEuMzMsMS4zMywwLDAsMSwxLjMyLDEuMzN2OS4yN2ExLjMzLDEuMzMsMCwwLDEtMS4zMiwxLjMzWiIvPjxwb2x5Z29uIGlkPSJGaWxsLTMiIGNsYXNzPSJjbHMtMiIgcG9pbnRzPSIxNS4yMiAzMS43OSAzMy43OCAzMS43OSAzMy43OCAzMC40NiAxNS4yMiAzMC40NiAxNS4yMiAzMS43OSIvPjwvc3ZnPg==;fontFamily=IBM Plex Sans;fontSource=fonts%2FIBMPlexSans-Regular.woff;spacingTop=-7;labelPosition=center;verticalLabelPosition=bottom;align=center;verticalAlign=top;fontSize=14;" parent="1" vertex="1">
          <mxGeometry x="20" y="810" width="48" height="48" as="geometry" />
        </mxCell>
        <mxCell id="MP2px9YScLDvGAfy4hZi-100" value="https://&amp;lt;app-name&amp;gt;.&amp;lt;id&amp;gt;.us-south.codeengine.appdomain.cloud:443" style="edgeLabel;html=1;align=left;verticalAlign=middle;resizable=0;points=[];fontStyle=1;fontColor=#000099;" parent="1" vertex="1" connectable="0">
          <mxGeometry x="189.99985029411908" y="887.9959999887974" as="geometry" />
        </mxCell>
        <mxCell id="MP2px9YScLDvGAfy4hZi-102" style="edgeStyle=orthogonalEdgeStyle;rounded=0;orthogonalLoop=1;jettySize=auto;html=1;exitX=1;exitY=0.5;exitDx=0;exitDy=0;entryX=0;entryY=0.5;entryDx=0;entryDy=0;" parent="1" source="MP2px9YScLDvGAfy4hZi-101" target="MP2px9YScLDvGAfy4hZi-78" edge="1">
          <mxGeometry relative="1" as="geometry" />
        </mxCell>
        <mxCell id="MP2px9YScLDvGAfy4hZi-101" value="End-user&#xa;(CLI/API)" style="shape=image;aspect=fixed;image=data:image/svg+xml,PHN2ZyBpZD0iTGF5ZXJfMSIgZGF0YS1uYW1lPSJMYXllciAxIiB4bWxucz0iaHR0cDovL3d3dy53My5vcmcvMjAwMC9zdmciIHZpZXdCb3g9IjAgMCA0OSA0OSI+PGRlZnM+PHN0eWxlPi5jbHMtMXtmaWxsOm5vbmU7fS5jbHMtMntmaWxsOiNmZmY7ZmlsbC1ydWxlOmV2ZW5vZGQ7fTwvc3R5bGU+PC9kZWZzPjxyZWN0IHg9IjAuNSIgeT0iMC41IiB3aWR0aD0iNDgiIGhlaWdodD0iNDgiIHJ4PSIyNCIvPjxyZWN0IGNsYXNzPSJjbHMtMSIgeD0iMTQuNSIgeT0iMTQuNSIgd2lkdGg9IjIwIiBoZWlnaHQ9IjIwIi8+PHBhdGggaWQ9IkZpbGwtMSIgY2xhc3M9ImNscy0yIiBkPSJNMTcuODcsMjcuODFIMzEuMTNWMTguNTRIMTcuODdabTEzLjI2LDEuMzNIMTcuODdhMS4zMywxLjMzLDAsMCwxLTEuMzItMS4zM1YxOC41NGExLjMzLDEuMzMsMCwwLDEsMS4zMi0xLjMzSDMxLjEzYTEuMzMsMS4zMywwLDAsMSwxLjMyLDEuMzN2OS4yN2ExLjMzLDEuMzMsMCwwLDEtMS4zMiwxLjMzWiIvPjxwb2x5Z29uIGlkPSJGaWxsLTMiIGNsYXNzPSJjbHMtMiIgcG9pbnRzPSIxNS4yMiAzMS43OSAzMy43OCAzMS43OSAzMy43OCAzMC40NiAxNS4yMiAzMC40NiAxNS4yMiAzMS43OSIvPjwvc3ZnPg==;fontFamily=IBM Plex Sans;fontSource=fonts%2FIBMPlexSans-Regular.woff;spacingTop=-7;labelPosition=center;verticalLabelPosition=bottom;align=center;verticalAlign=top;fontSize=14;" parent="1" vertex="1">
          <mxGeometry x="20" y="980" width="48" height="48" as="geometry" />
        </mxCell>
        <mxCell id="MP2px9YScLDvGAfy4hZi-103" value="https://api.us-south.codeengine.cloud.ibm.com:443" style="edgeLabel;html=1;align=left;verticalAlign=middle;resizable=0;points=[];fontStyle=1;fontColor=#000099;" parent="1" vertex="1" connectable="0">
          <mxGeometry x="209.99985029411908" y="1054.9959999887974" as="geometry" />
        </mxCell>
        <mxCell id="MP2px9YScLDvGAfy4hZi-108" value="ibmcloud ce jobrun submit" style="edgeLabel;html=1;align=left;verticalAlign=middle;resizable=0;points=[];fontStyle=2" parent="1" vertex="1" connectable="0">
          <mxGeometry x="99.99999999999996" y="990" as="geometry" />
        </mxCell>
        <mxCell id="MP2px9YScLDvGAfy4hZi-109" value="postgres://10.243.0.4:5432" style="edgeLabel;html=1;align=left;verticalAlign=middle;resizable=0;points=[];fontStyle=1;fontColor=#000099;" parent="1" vertex="1" connectable="0">
          <mxGeometry x="1170.0019047619048" y="964.9999999999998" as="geometry" />
        </mxCell>
        <mxCell id="OowP8Bram1WtS_GlOOUc-26" value="Private Path&#xa;VPE Gateway" style="shape=rect;fillColor=#1192E8;aspect=fixed;resizable=0;labelPosition=center;verticalLabelPosition=bottom;align=center;verticalAlign=top;strokeColor=none;fontSize=14;" vertex="1" parent="1">
          <mxGeometry x="650" y="416" width="48" height="48" as="geometry" />
        </mxCell>
        <mxCell id="OowP8Bram1WtS_GlOOUc-27" value="" style="fillColor=#ffffff;strokeColor=none;dashed=0;outlineConnect=0;html=1;labelPosition=center;verticalLabelPosition=bottom;verticalAlign=top;part=1;movable=0;resizable=0;rotatable=0;shape=mxgraph.ibm_cloud.ibm-cloud--vpc-endpoints" vertex="1" parent="OowP8Bram1WtS_GlOOUc-26">
          <mxGeometry width="24" height="24" relative="1" as="geometry">
            <mxPoint x="12" y="12" as="offset" />
          </mxGeometry>
        </mxCell>
        <mxCell id="OowP8Bram1WtS_GlOOUc-32" value="" style="html=1;labelBackgroundColor=#ffffff;jettySize=auto;orthogonalLoop=1;fontSize=14;rounded=0;jumpStyle=gap;edgeStyle=orthogonalEdgeStyle;startArrow=oval;endArrow=none;strokeWidth=2;startFill=1;endFill=0;strokeColor=#198038;exitX=1;exitY=0.5;exitDx=0;exitDy=0;entryX=0;entryY=0.5;entryDx=0;entryDy=0;" edge="1" parent="1" source="MP2px9YScLDvGAfy4hZi-34" target="OowP8Bram1WtS_GlOOUc-28">
          <mxGeometry width="48" height="48" relative="1" as="geometry">
            <mxPoint x="870" y="478" as="sourcePoint" />
            <mxPoint x="918" y="430" as="targetPoint" />
          </mxGeometry>
        </mxCell>
        <mxCell id="OowP8Bram1WtS_GlOOUc-34" value="" style="html=1;labelBackgroundColor=#ffffff;jettySize=auto;orthogonalLoop=1;fontSize=14;rounded=0;jumpStyle=gap;edgeStyle=orthogonalEdgeStyle;startArrow=none;endArrow=block;strokeWidth=2;startFill=0;endFill=1;strokeColor=#198038;exitX=1;exitY=0.5;exitDx=0;exitDy=0;entryX=0;entryY=0.5;entryDx=0;entryDy=0;" edge="1" parent="1" source="OowP8Bram1WtS_GlOOUc-28" target="OowP8Bram1WtS_GlOOUc-26">
          <mxGeometry width="48" height="48" relative="1" as="geometry">
            <mxPoint x="870" y="478" as="sourcePoint" />
            <mxPoint x="918" y="430" as="targetPoint" />
          </mxGeometry>
        </mxCell>
        <mxCell id="OowP8Bram1WtS_GlOOUc-28" value="Network&#xa;Policies" style="shape=rect;fillColor=#FA4D56;aspect=fixed;resizable=0;labelPosition=center;verticalLabelPosition=bottom;align=center;verticalAlign=top;strokeColor=none;fontSize=14;" vertex="1" parent="1">
          <mxGeometry x="505" y="416" width="48" height="48" as="geometry" />
        </mxCell>
        <mxCell id="OowP8Bram1WtS_GlOOUc-29" value="" style="fillColor=#ffffff;strokeColor=none;dashed=0;outlineConnect=0;html=1;labelPosition=center;verticalLabelPosition=bottom;verticalAlign=top;part=1;movable=0;resizable=0;rotatable=0;shape=mxgraph.ibm_cloud.subnet-acl-rules" vertex="1" parent="OowP8Bram1WtS_GlOOUc-28">
          <mxGeometry width="24" height="24" relative="1" as="geometry">
            <mxPoint x="12" y="12" as="offset" />
          </mxGeometry>
        </mxCell>
        <mxCell id="OowP8Bram1WtS_GlOOUc-36" value="" style="html=1;labelBackgroundColor=#ffffff;jettySize=auto;orthogonalLoop=1;fontSize=14;rounded=0;jumpStyle=gap;edgeStyle=orthogonalEdgeStyle;startArrow=oval;endArrow=none;strokeWidth=2;startFill=1;endFill=0;strokeColor=#198038;exitX=1;exitY=0.5;exitDx=0;exitDy=0;entryX=0;entryY=0.5;entryDx=0;entryDy=0;" edge="1" parent="1" source="MP2px9YScLDvGAfy4hZi-37" target="OowP8Bram1WtS_GlOOUc-28">
          <mxGeometry width="48" height="48" relative="1" as="geometry">
            <mxPoint x="325" y="504" as="sourcePoint" />
            <mxPoint x="650" y="440" as="targetPoint" />
          </mxGeometry>
        </mxCell>
        <mxCell id="OowP8Bram1WtS_GlOOUc-37" value="" style="html=1;labelBackgroundColor=#ffffff;jettySize=auto;orthogonalLoop=1;fontSize=14;rounded=0;jumpStyle=gap;edgeStyle=orthogonalEdgeStyle;startArrow=oval;endArrow=block;strokeWidth=2;startFill=1;endFill=1;strokeColor=#198038;exitX=1;exitY=0.5;exitDx=0;exitDy=0;entryX=0;entryY=0.5;entryDx=0;entryDy=0;" edge="1" parent="1" source="OowP8Bram1WtS_GlOOUc-26" target="OowP8Bram1WtS_GlOOUc-24">
          <mxGeometry width="48" height="48" relative="1" as="geometry">
            <mxPoint x="870" y="478" as="sourcePoint" />
            <mxPoint x="918" y="430" as="targetPoint" />
          </mxGeometry>
        </mxCell>
        <mxCell id="OowP8Bram1WtS_GlOOUc-48" value="Private Path &#xa;Network Load Balancer" style="shape=rect;fillColor=#1192E8;aspect=fixed;resizable=0;labelPosition=center;verticalLabelPosition=bottom;align=center;verticalAlign=top;strokeColor=none;fontSize=14;" vertex="1" parent="1">
          <mxGeometry x="820" y="890" width="48" height="48" as="geometry" />
        </mxCell>
        <mxCell id="OowP8Bram1WtS_GlOOUc-49" value="" style="fillColor=#ffffff;strokeColor=none;dashed=0;outlineConnect=0;html=1;labelPosition=center;verticalLabelPosition=bottom;verticalAlign=top;part=1;movable=0;resizable=0;rotatable=0;shape=mxgraph.ibm_cloud.load-balancer--vpc" vertex="1" parent="OowP8Bram1WtS_GlOOUc-48">
          <mxGeometry width="24" height="24" relative="1" as="geometry">
            <mxPoint x="12" y="12" as="offset" />
          </mxGeometry>
        </mxCell>
        <object label="" release="v3.0.0" generation="2.0" id="OowP8Bram1WtS_GlOOUc-50">
          <mxCell style="shape=image;verticalLabelPosition=bottom;verticalAlign=top;imageAspect=0;aspect=fixed;image=data:image/svg+xml,PHN2ZyB4bWxuczp4bGluaz0iaHR0cDovL3d3dy53My5vcmcvMTk5OS94bGluayIgeG1sbnM9Imh0dHA6Ly93d3cudzMub3JnLzIwMDAvc3ZnIiB2ZXJzaW9uPSIxLjEiIHZpZXdCb3g9IjAgMCA0OCA0OCIgaGVpZ2h0PSI0OHB4IiB3aWR0aD0iNDhweCI+JiN4YTsgICAgPHRpdGxlPlNlcnZpY2UgSUQ8L3RpdGxlPiYjeGE7ICAgIDxnIGZpbGwtcnVsZT0iZXZlbm9kZCIgZmlsbD0ibm9uZSIgc3Ryb2tlLXdpZHRoPSIxIiBzdHJva2U9Im5vbmUiIGlkPSJWMi1JY29ucyI+JiN4YTsgICAgICAgIDxnIHRyYW5zZm9ybT0idHJhbnNsYXRlKC04MTksIC0xOCkiIGlkPSJJQk0vQ2xvdWQvQWN0b3JzIj4mI3hhOyAgICAgICAgICAgIDxnIHRyYW5zZm9ybT0idHJhbnNsYXRlKDgxOSwgMTgpIiBpZD0iU2VydmljZS1JRCI+JiN4YTsgICAgICAgICAgICAgICAgPHJlY3Qgcng9IjI0IiBoZWlnaHQ9IjQ4IiB3aWR0aD0iNDgiIHk9IjAiIHg9IjAiIGZpbGw9IiMwMDAwMDAiIGlkPSJSZWN0YW5nbGUtQ29weS0yMSIvPiYjeGE7ICAgICAgICAgICAgICAgIDxnIHRyYW5zZm9ybT0idHJhbnNsYXRlKDEyLCAxMikiIGlkPSJzZXJ2aWNlLWlkIj4mI3hhOyAgICAgICAgICAgICAgICAgICAgPHBhdGggZmlsbC1ydWxlPSJub256ZXJvIiBmaWxsPSIjRkZGRkZGIiBpZD0iU2hhcGUiIGQ9Ik0yMi41LDE4IEwyMi41LDE2LjUgTDIwLjkyNDI1LDE2LjUgQzIwLjgyNjc1LDE2LjAyMjI1IDIwLjYzNjI1LDE1LjU3ODI1IDIwLjM3NTI1LDE1LjE4NTI1IEwyMS40OTI3NSwxNC4wNjc3NSBMMjAuNDMyMjUsMTMuMDA3MjUgTDE5LjMxNDc1LDE0LjEyNDc1IEMxOC45MjE3NSwxMy44NjM3NSAxOC40Nzc3NSwxMy42NzMyNSAxOCwxMy41NzU3NSBMMTgsMTIgTDE2LjUsMTIgTDE2LjUsMTMuNTc1NzUgQzE2LjAyMjI1LDEzLjY3MzI1IDE1LjU3ODI1LDEzLjg2Mzc1IDE1LjE4NTI1LDE0LjEyNDc1IEwxNC4wNjc3NSwxMy4wMDcyNSBMMTMuMDA3MjUsMTQuMDY3NzUgTDE0LjEyNDc1LDE1LjE4NTI1IEMxMy44NjM3NSwxNS41NzgyNSAxMy42NzMyNSwxNi4wMjIyNSAxMy41NzU3NSwxNi41IEwxMiwxNi41IEwxMiwxOCBMMTMuNTc1NzUsMTggQzEzLjY3MzI1LDE4LjQ3Nzc1IDEzLjg2Mzc1LDE4LjkyMTc1IDE0LjEyNDc1LDE5LjMxNDc1IEwxMy4wMDcyNSwyMC40MzIyNSBMMTQuMDY3NzUsMjEuNDkyNzUgTDE1LjE4NTI1LDIwLjM3NTI1IEMxNS41NzgyNSwyMC42MzYyNSAxNi4wMjIyNSwyMC44MjY3NSAxNi41LDIwLjkyNDI1IEwxNi41LDIyLjUgTDE4LDIyLjUgTDE4LDIwLjkyNDI1IEMxOC40Nzc3NSwyMC44MjY3NSAxOC45MjE3NSwyMC42MzYyNSAxOS4zMTQ3NSwyMC4zNzUyNSBMMjAuNDMyMjUsMjEuNDkyNzUgTDIxLjQ5Mjc1LDIwLjQzMjI1IEwyMC4zNzUyNSwxOS4zMTQ3NSBDMjAuNjM2MjUsMTguOTIxNzUgMjAuODI2NzUsMTguNDc3NzUgMjAuOTI0MjUsMTggTDIyLjUsMTggWiBNMTcuMjUsMTkuNSBDMTYuMDA5NSwxOS41IDE1LDE4LjQ5MDUgMTUsMTcuMjUgQzE1LDE2LjAwOTUgMTYuMDA5NSwxNSAxNy4yNSwxNSBDMTguNDkwNSwxNSAxOS41LDE2LjAwOTUgMTkuNSwxNy4yNSBDMTkuNSwxOC40OTA1IDE4LjQ5MDUsMTkuNSAxNy4yNSwxOS41IFoiLz4mI3hhOyAgICAgICAgICAgICAgICAgICAgPHBhdGggZmlsbC1ydWxlPSJub256ZXJvIiBmaWxsPSIjRkZGRkZGIiBpZD0iUGF0aCIgZD0iTTQuNSwyMSBMNC41LDMgTDE2LjUsMyBMMTYuNSw5Ljc1IEwxOCw5Ljc1IEwxOCwzIEMxOCwyLjE3Mjc1IDE3LjMyNzI1LDEuNSAxNi41LDEuNSBMNC41LDEuNSBDMy42NzI3NSwxLjUgMywyLjE3Mjc1IDMsMyBMMywyMSBDMywyMS44MjcyNSAzLjY3Mjc1LDIyLjUgNC41LDIyLjUgTDEwLjUsMjIuNSBMMTAuNSwyMSBMNC41LDIxIFoiLz4mI3hhOyAgICAgICAgICAgICAgICAgICAgPHJlY3QgaGVpZ2h0PSIyNCIgd2lkdGg9IjI0IiB5PSIwIiB4PSIwIiBpZD0iX3gzQ19UcmFuc3BhcmVudF9SZWN0YW5nbGVfeDNFX181ODlfIi8+JiN4YTsgICAgICAgICAgICAgICAgPC9nPiYjeGE7ICAgICAgICAgICAgPC9nPiYjeGE7ICAgICAgICA8L2c+JiN4YTsgICAgPC9nPiYjeGE7PC9zdmc+;fontFamily=IBM Plex Sans;fontSize=14;spacingTop=-7;labelPosition=center;align=center;" vertex="1" parent="1">
            <mxGeometry x="827" y="1121" width="48" height="48" as="geometry" />
          </mxCell>
        </object>
        <mxCell id="OowP8Bram1WtS_GlOOUc-51" value="" style="shape=ellipse;fillColor=#000000;aspect=fixed;resizable=0;labelPosition=center;verticalLabelPosition=bottom;align=center;verticalAlign=top;strokeColor=none;fontSize=14;" vertex="1" parent="1">
          <mxGeometry x="1030" y="1121" width="48" height="48" as="geometry" />
        </mxCell>
        <mxCell id="OowP8Bram1WtS_GlOOUc-52" value="" style="fillColor=#ffffff;strokeColor=none;dashed=0;outlineConnect=0;html=1;labelPosition=center;verticalLabelPosition=bottom;verticalAlign=top;part=1;movable=0;resizable=0;rotatable=0;shape=mxgraph.ibm_cloud.user" vertex="1" parent="OowP8Bram1WtS_GlOOUc-51">
          <mxGeometry width="24" height="24" relative="1" as="geometry">
            <mxPoint x="12" y="12" as="offset" />
          </mxGeometry>
        </mxCell>
        <mxCell id="OowP8Bram1WtS_GlOOUc-53" value="" style="shape=ellipse;fillColor=#A56EFF;aspect=fixed;resizable=0;labelPosition=center;verticalLabelPosition=bottom;align=center;verticalAlign=top;strokeColor=none;fontSize=14;" vertex="1" parent="1">
          <mxGeometry x="450" y="1130" width="48" height="48" as="geometry" />
        </mxCell>
        <mxCell id="OowP8Bram1WtS_GlOOUc-54" value="" style="fillColor=#ffffff;strokeColor=none;dashed=0;outlineConnect=0;html=1;labelPosition=center;verticalLabelPosition=bottom;verticalAlign=top;part=1;movable=0;resizable=0;rotatable=0;shape=mxgraph.ibm_cloud.application" vertex="1" parent="OowP8Bram1WtS_GlOOUc-53">
          <mxGeometry width="24" height="24" relative="1" as="geometry">
            <mxPoint x="12" y="12" as="offset" />
          </mxGeometry>
        </mxCell>
        <object label="" release="v3.0.0" generation="2.0" id="OowP8Bram1WtS_GlOOUc-55">
          <mxCell style="shape=image;aspect=fixed;image=data:image/svg+xml,PD94bWwgdmVyc2lvbj0iMS4wIiBlbmNvZGluZz0iVVRGLTgiPz4KPHN2ZyB3aWR0aD0iNDhweCIgaGVpZ2h0PSI0OHB4IiB2aWV3Qm94PSIwIDAgNDggNDgiIHZlcnNpb249IjEuMSIgeG1sbnM9Imh0dHA6Ly93d3cudzMub3JnLzIwMDAvc3ZnIiB4bWxuczp4bGluaz0iaHR0cDovL3d3dy53My5vcmcvMTk5OS94bGluayI+CiAgICA8dGl0bGU+Y3JlZGVudGlhbHM8L3RpdGxlPgogICAgPGcgaWQ9IlYyLUljb25zIiBzdHJva2U9Im5vbmUiIHN0cm9rZS13aWR0aD0iMSIgZmlsbD0ibm9uZSIgZmlsbC1ydWxlPSJldmVub2RkIj4KICAgICAgICA8ZyBpZD0iSUJNLS8tQ2xvdWQtLy1TZWN1cml0eSIgdHJhbnNmb3JtPSJ0cmFuc2xhdGUoLTQ2NiwgLTE0KSI+CiAgICAgICAgICAgIDxnIGlkPSJjcmVkZW50aWFscyIgdHJhbnNmb3JtPSJ0cmFuc2xhdGUoNDY2LCAxNCkiPgogICAgICAgICAgICAgICAgPHJlY3QgaWQ9IlJlY3RhbmdsZSIgZmlsbD0iI0ZBNEQ1NiIgeD0iMCIgeT0iMCIgd2lkdGg9IjQ4IiBoZWlnaHQ9IjQ4Ij48L3JlY3Q+CiAgICAgICAgICAgICAgICA8ZyB0cmFuc2Zvcm09InRyYW5zbGF0ZSgxMiwgMTIpIj4KICAgICAgICAgICAgICAgICAgICA8cGF0aCBkPSJNMTIsMTYuNSBDMTMuNjU2ODU0MiwxNi41IDE1LDE1LjE1Njg1NDIgMTUsMTMuNSBDMTUsMTEuODQzMTQ1OCAxMy42NTY4NTQyLDEwLjUgMTIsMTAuNSBDMTAuMzQzMTQ1OCwxMC41IDksMTEuODQzMTQ1OCA5LDEzLjUgQzksMTUuMTU2ODU0MiAxMC4zNDMxNDU4LDE2LjUgMTIsMTYuNSBaIE0xMiwxMiBDMTIuODI4NDI3MSwxMiAxMy41LDEyLjY3MTU3MjkgMTMuNSwxMy41IEMxMy41LDE0LjMyODQyNzEgMTIuODI4NDI3MSwxNSAxMiwxNSBDMTEuMTcxNTcyOSwxNSAxMC41LDE0LjMyODQyNzEgMTAuNSwxMy41IEMxMC41LDEyLjY3MTU3MjkgMTEuMTcxNTcyOSwxMiAxMiwxMiBaIiBpZD0iU2hhcGUiIGZpbGw9IiNGRkZGRkYiIGZpbGwtcnVsZT0ibm9uemVybyI+PC9wYXRoPgogICAgICAgICAgICAgICAgICAgIDxyZWN0IGlkPSJSZWN0YW5nbGUiIGZpbGw9IiNGRkZGRkYiIGZpbGwtcnVsZT0ibm9uemVybyIgeD0iMTAuNSIgeT0iNC41IiB3aWR0aD0iMyIgaGVpZ2h0PSIxLjUiPjwvcmVjdD4KICAgICAgICAgICAgICAgICAgICA8cGF0aCBkPSJNMTgsMS41IEw0LjUsMS41IEM1LjE3MTkxNTYxLDEuNTAwODI2ODQgNC41MDA4MjY4NCwyLjE3MTkxNTYxIDQuNSwzIEw0LjUsMjEgQzQuNTAwOTUwNiwyMS44MjgwMzMxIDUuMTcxOTY2OTUsMjIuNDk5MDQ5NCA0LjUsMjIuNSBMMTgsMjIuNSBDMTguODI3OTY0NiwyMi40OTg4ODQ1IDE5LjQ5ODg4NDUsMjEuODI3OTY0NiAxOS41LDIxIEwxOS41LDMgQzE5LjQ5OTA0OTQsMi4xNzE5NjY5NSAxOC44MjgwMzMxLDEuNTAwOTUwNiAxOCwxLjUgTDE4LDEuNSBaIE0xNSwyMSBMOSwyMSBMOSwxOS41IEM5LDE5LjA4NTc4NjQgOS4zMzU3ODY0NCwxOC43NSA5Ljc1LDE4Ljc1IEwxNC4yNSwxOC43NSBDMTQuNjY0MjEzNiwxOC43NSAxNSwxOS4wODU3ODY0IDE1LDE5LjUgTDE1LDIxIFogTTE2LjUsMjEgTDE2LjUsMTkuNSBDMTYuNSwxOC4yNTczNTkzIDE1LjQ5MjY0MDcsMTcuMjUgMTQuMjUsMTcuMjUgTDkuNzUsMTcuMjUgQzguNTA3MzU5MzEsMTcuMjUgNy41LDE4LjI1NzM1OTMgNy41LDE5LjUgTDcuNSwyMSBMNiwyMSBMNiwzIEwxOCwzIEwxOCwyMSBMMTYuNSwyMSBaIiBpZD0iU2hhcGUiIGZpbGw9IiNGRkZGRkYiIGZpbGwtcnVsZT0ibm9uemVybyI+PC9wYXRoPgogICAgICAgICAgICAgICAgICAgIDxyZWN0IGlkPSJfVHJhbnNwYXJlbnRfUmVjdGFuZ2xlXyIgeD0iMCIgeT0iMCIgd2lkdGg9IjI0IiBoZWlnaHQ9IjI0Ij48L3JlY3Q+CiAgICAgICAgICAgICAgICA8L2c+CiAgICAgICAgICAgIDwvZz4KICAgICAgICA8L2c+CiAgICA8L2c+Cjwvc3ZnPg==;fontFamily=IBM Plex Sans;fontSize=14;labelPosition=center;verticalLabelPosition=bottom;align=center;verticalAlign=top;spacingTop=-7;" vertex="1" parent="1">
            <mxGeometry x="1258" y="1121" width="48" height="48" as="geometry" />
          </mxCell>
        </object>
        <object label="" release="v3.0.0" generation="2.0" id="OowP8Bram1WtS_GlOOUc-56">
          <mxCell style="shape=image;aspect=fixed;image=data:image/svg+xml,PD94bWwgdmVyc2lvbj0iMS4wIiBlbmNvZGluZz0iVVRGLTgiPz4KPHN2ZyB3aWR0aD0iNDhweCIgaGVpZ2h0PSI0OXB4IiB2aWV3Qm94PSIwIDAgNDggNDkiIHZlcnNpb249IjEuMSIgeG1sbnM9Imh0dHA6Ly93d3cudzMub3JnLzIwMDAvc3ZnIiB4bWxuczp4bGluaz0iaHR0cDovL3d3dy53My5vcmcvMTk5OS94bGluayI+CiAgICA8dGl0bGU+T2JqZWN0IEJ1Y2tldDwvdGl0bGU+CiAgICA8ZyBpZD0iVjItSWNvbnMiIHN0cm9rZT0ibm9uZSIgc3Ryb2tlLXdpZHRoPSIxIiBmaWxsPSJub25lIiBmaWxsLXJ1bGU9ImV2ZW5vZGQiPgogICAgICAgIDxnIGlkPSJJQk0tLy1DbG91ZC0vLVN0b3JhZ2UiIHRyYW5zZm9ybT0idHJhbnNsYXRlKC01MzQsIC00NykiPgogICAgICAgICAgICA8ZyBpZD0iT2JqZWN0LUJ1Y2tldCIgdHJhbnNmb3JtPSJ0cmFuc2xhdGUoNTM0LCA0Ny45MzYyKSI+CiAgICAgICAgICAgICAgICA8cG9seWdvbiBpZD0iRmlsbC00IiBmaWxsPSIjMEY2MkZFIiBwb2ludHM9IjAgNDggNDggNDggNDggMCAwIDAiPjwvcG9seWdvbj4KICAgICAgICAgICAgICAgIDxwYXRoIGQ9Ik0yOC43NSwzMC4wNjM3NzczIEMyOC4xODE3NTExLDMwLjA2NTAwMjUgMjcuNjM1MzA1NiwzMC4yODI2MzEzIDI3LjIyMTgsMzAuNjcyNDAyMyBMMjQuMjE5MDI1LDI4Ljg3MDY3NzMgQzI0LjI2MDMyNTUsMjguNjY4MTYxNiAyNC4yNjAzMjU1LDI4LjQ1OTM5MzEgMjQuMjE5MDI1LDI4LjI1Njg3NzMgTDI3LjIyMTgsMjYuNDU1MTUyMyBDMjguMDczODYzLDI3LjI5NzA0MzYgMjkuNDExNzE0MiwyNy4zOTQxMDYxIDMwLjM3NjM3NDYsMjYuNjg0MDE5OSBDMzEuMzQxMDM1MSwyNS45NzM5MzM4IDMxLjY0NTg5ODUsMjQuNjY3NjY5OSAzMS4wOTUyMjQ1LDIzLjYwMzkyNjMgQzMwLjU0NDU1MDUsMjIuNTQwMTgyNyAyOS4zMDE5NDc4LDIyLjAzNTAwNDEgMjguMTY1MjQwMiwyMi40MTI3NDQ3IEMyNy4wMjg1MzI2LDIyLjc5MDQ4NTQgMjYuMzM1NDQyNywyMy45Mzg5MTYyIDI2LjUzMDk3NSwyNS4xMjA2NzczIEwyMy41MjgyLDI2LjkyMjQwMjMgQzIyLjYzNTQyMDEsMjYuMDg1MzI5OSAyMS4yMzczMTA5LDI2LjExNTM0MDMgMjAuMzgxMjcyMiwyNi45ODk5NTEgQzE5LjUyNTIzMzUsMjcuODY0NTYxNyAxOS41MjUyMzM1LDI5LjI2Mjk5MjkgMjAuMzgxMjcyMiwzMC4xMzc2MDM3IEMyMS4yMzczMTA5LDMxLjAxMjIxNDQgMjIuNjM1NDIwMSwzMS4wNDIyMjQ3IDIzLjUyODIsMzAuMjA1MTUyMyBMMjYuNTMwOTc1LDMyLjAwNjg3NzMgQzI2LjUxMzU3NzcsMzIuMTA4MzM5NiAyNi41MDMyMjc5LDMyLjIxMDg4NDkgMjYuNSwzMi4zMTM3NzczIEMyNi41LDMzLjU1NjQxOCAyNy41MDczNTkzLDM0LjU2Mzc3NzMgMjguNzUsMzQuNTYzNzc3MyBDMjkuOTkyNjQwNywzNC41NjM3NzczIDMxLDMzLjU1NjQxOCAzMSwzMi4zMTM3NzczIEMzMSwzMS4wNzExMzY2IDI5Ljk5MjY0MDcsMzAuMDYzNzc3MyAyOC43NSwzMC4wNjM3NzczIFogTTI4Ljc1LDI0LjA2Mzc3NzMgQzI5LjE2NDIxMzYsMjQuMDYzNzc3MyAyOS41LDI0LjM5OTU2MzggMjkuNSwyNC44MTM3NzczIEMyOS41LDI1LjIyNzk5MDkgMjkuMTY0MjEzNiwyNS41NjM3NzczIDI4Ljc1LDI1LjU2Mzc3NzMgQzI4LjMzNTc4NjQsMjUuNTYzNzc3MyAyOCwyNS4yMjc5OTA5IDI4LDI0LjgxMzc3NzMgQzI4LjAwMDMzMDksMjQuMzk5NzAwOSAyOC4zMzU5MjM2LDI0LjA2NDEwODIgMjguNzUsMjQuMDYzNzc3MyBMMjguNzUsMjQuMDYzNzc3MyBaIE0yMiwyOS4zMTM3NzczIEMyMS41ODU3ODY0LDI5LjMxMzc3NzMgMjEuMjUsMjguOTc3OTkwOSAyMS4yNSwyOC41NjM3NzczIEMyMS4yNSwyOC4xNDk1NjM4IDIxLjU4NTc4NjQsMjcuODEzNzc3MyAyMiwyNy44MTM3NzczIEMyMi40MTQyMTM2LDI3LjgxMzc3NzMgMjIuNzUsMjguMTQ5NTYzOCAyMi43NSwyOC41NjM3NzczIEMyMi43NDk2NjkxLDI4Ljk3Nzg1MzggMjIuNDE0MDc2NCwyOS4zMTM0NDY1IDIyLDI5LjMxMzc3NzMgTDIyLDI5LjMxMzc3NzMgWiBNMjguNzUsMzMuMDYzNzc3MyBDMjguMzM1Nzg2NCwzMy4wNjM3NzczIDI4LDMyLjcyNzk5MDkgMjgsMzIuMzEzNzc3MyBDMjgsMzEuODk5NTYzOCAyOC4zMzU3ODY0LDMxLjU2Mzc3NzMgMjguNzUsMzEuNTYzNzc3MyBDMjkuMTY0MjEzNiwzMS41NjM3NzczIDI5LjUsMzEuODk5NTYzOCAyOS41LDMyLjMxMzc3NzMgQzI5LjQ5OTY2OTEsMzIuNzI3ODUzOCAyOS4xNjQwNzY0LDMzLjA2MzQ0NjUgMjguNzUsMzMuMDYzNzc3MyBaIiBpZD0iU2hhcGUiIGZpbGw9IiNGRkZGRkYiIGZpbGwtcnVsZT0ibm9uemVybyI+PC9wYXRoPgogICAgICAgICAgICAgICAgPHBhdGggZD0iTTE3LjUsMzMuMDYzNzcxNSBMMTQuNSwzMy4wNjM3NzE1IEMxMy42NzE5NjY5LDMzLjA2MjgyNjcgMTMuMDAwOTUwNiwzMi4zOTE4MTA0IDEzLDMxLjU2Mzc3MTUgTDEzLDE2LjU2Mzc3MTUgQzEzLjAwMDk1MDYsMTUuNzM1NzQ0MyAxMy42NzE5NjY5LDE1LjA2NDcyNzkgMTQuNSwxNS4wNjM3NzE1IEwyMC4xODkyNzUsMTUuMDYzNzcxNSBDMjAuNTg3MzU2NywxNS4wNjI2NjE0IDIwLjk2OTMyOTMsMTUuMjIwOTAwNiAyMS4yNSwxNS41MDMyMDIzIEwyMy44MTA3MjUsMTguMDYzNzcxNSBMMzIuNSwxOC4wNjM3NzE1IEMzMy4zMjgwMzMxLDE4LjA2NDcyNzkgMzMuOTk5MDQ5NCwxOC43MzU3NDQzIDM0LDE5LjU2Mzc3MTUgTDM0LDI1LjU2Mzc3MTUgTDMyLjUsMjUuNTYzNzcxNSBMMzIuNSwxOS41NjM3NzE1IEwyMy4xODkyNzUsMTkuNTYzNzcxNSBMMjAuMTg5Mjc1LDE2LjU2Mzc3MTUgTDE0LjUsMTYuNTYzNzcxNSBMMTQuNSwzMS41NjM3NzE1IEwxNy41LDMxLjU2Mzc3MTUgTDE3LjUsMzMuMDYzNzcxNSBaIiBpZD0iUGF0aCIgZmlsbD0iI0ZGRkZGRiIgZmlsbC1ydWxlPSJub256ZXJvIj48L3BhdGg+CiAgICAgICAgICAgICAgICA8cmVjdCBpZD0iX1RyYW5zcGFyZW50X1JlY3RhbmdsZV8iIHg9IjExLjUiIHk9IjEyLjA2Mzc3NzMiIHdpZHRoPSIyNCIgaGVpZ2h0PSIyNCI+PC9yZWN0PgogICAgICAgICAgICA8L2c+CiAgICAgICAgPC9nPgogICAgPC9nPgo8L3N2Zz4=;fontFamily=IBM Plex Sans;fontSize=14;labelPosition=center;verticalLabelPosition=bottom;align=center;verticalAlign=top;spacingTop=-7;" vertex="1" parent="1">
            <mxGeometry x="120" y="1150" width="48" height="48" as="geometry" />
          </mxCell>
        </object>
        <object label="" release="v3.0.0" generation="2.0" id="OowP8Bram1WtS_GlOOUc-57">
          <mxCell style="shape=image;aspect=fixed;image=data:image/svg+xml,PD94bWwgdmVyc2lvbj0iMS4wIiBlbmNvZGluZz0iVVRGLTgiPz4KPHN2ZyB3aWR0aD0iNDhweCIgaGVpZ2h0PSI0OHB4IiB2aWV3Qm94PSIwIDAgNDggNDgiIHZlcnNpb249IjEuMSIgeG1sbnM9Imh0dHA6Ly93d3cudzMub3JnLzIwMDAvc3ZnIiB4bWxuczp4bGluaz0iaHR0cDovL3d3dy53My5vcmcvMTk5OS94bGluayI+CiAgICA8dGl0bGU+TmV0d29yayBBQ0w8L3RpdGxlPgogICAgPGcgaWQ9IlYyLUljb25zIiBzdHJva2U9Im5vbmUiIHN0cm9rZS13aWR0aD0iMSIgZmlsbD0ibm9uZSIgZmlsbC1ydWxlPSJldmVub2RkIj4KICAgICAgICA8ZyBpZD0iSUJNLS8tQ2xvdWQtLy1TZWN1cml0eSIgdHJhbnNmb3JtPSJ0cmFuc2xhdGUoLTE0NTgsIC0xMykiPgogICAgICAgICAgICA8ZyBpZD0iTmV0d29yay1BQ0wiIHRyYW5zZm9ybT0idHJhbnNsYXRlKDE0NTgsIDEzKSI+CiAgICAgICAgICAgICAgICA8cmVjdCBpZD0iUmVjdGFuZ2xlIiBmaWxsPSIjRkE0RDU2IiB4PSIwIiB5PSIwIiB3aWR0aD0iNDgiIGhlaWdodD0iNDgiPjwvcmVjdD4KICAgICAgICAgICAgICAgIDxnIGlkPSJsb2NrZWQiIHRyYW5zZm9ybT0idHJhbnNsYXRlKDEyLCAxMikiPgogICAgICAgICAgICAgICAgICAgIDxwYXRoIGQ9Ik0xOCwxMC41IEwxNi41LDEwLjUgTDE2LjUsNiBDMTYuNSwzLjUxNDcxODYzIDE0LjQ4NTI4MTQsMS41IDEyLDEuNSBDOS41MTQ3MTg2MywxLjUgNy41LDMuNTE0NzE4NjMgNy41LDYgTDcuNSwxMC41IEw2LDEwLjUgQzUuMTcxNTcyODgsMTAuNSA0LjUsMTEuMTcxNTcyOSA0LjUsMTIgTDQuNSwyMSBDNC41LDIxLjgyODQyNzEgNS4xNzE1NzI4OCwyMi41IDYsMjIuNSBMMTgsMjIuNSBDMTguODI4NDI3MSwyMi41IDE5LjUsMjEuODI4NDI3MSAxOS41LDIxIEwxOS41LDEyIEMxOS41LDExLjE3MTU3MjkgMTguODI4NDI3MSwxMC41IDE4LDEwLjUgWiBNOSw2IEM5LDQuMzQzMTQ1NzUgMTAuMzQzMTQ1OCwzIDEyLDMgQzEzLjY1Njg1NDIsMyAxNSw0LjM0MzE0NTc1IDE1LDYgTDE1LDEwLjUgTDksMTAuNSBMOSw2IFogTTE4LDIxIEw2LDIxIEw2LDEyIEwxOCwxMiBMMTgsMjEgWiIgaWQ9IlNoYXBlIiBmaWxsPSIjRkZGRkZGIiBmaWxsLXJ1bGU9Im5vbnplcm8iPjwvcGF0aD4KICAgICAgICAgICAgICAgICAgICA8cmVjdCBpZD0iX1RyYW5zcGFyZW50X1JlY3RhbmdsZV8iIHg9IjAiIHk9IjAiIHdpZHRoPSIyNCIgaGVpZ2h0PSIyNCI+PC9yZWN0PgogICAgICAgICAgICAgICAgPC9nPgogICAgICAgICAgICA8L2c+CiAgICAgICAgPC9nPgogICAgPC9nPgo8L3N2Zz4=;fontFamily=IBM Plex Sans;fontSize=14;labelPosition=center;verticalLabelPosition=bottom;align=center;verticalAlign=top;spacingTop=-7;" vertex="1" parent="1">
            <mxGeometry x="660" y="1169" width="48" height="48" as="geometry" />
          </mxCell>
        </object>
      </root>
    </mxGraphModel>
  </diagram>
</mxfile>
